<svg width="62" height="63" viewBox="0 0 62 63" fill="none" xmlns="http://www.w3.org/2000/svg">
<rect x="1.41895" y="1.97839" width="59.1931" height="59.1931" rx="20" stroke="#1E1715" stroke-width="2"/>
<path d="M41.0156 41.1232V38.3232C41.0156 37.2031 41.0156 36.6431 40.7976 36.2153C40.6059 35.8389 40.2999 35.533 39.9236 35.3412C39.4958 35.1232 38.9357 35.1232 37.8156 35.1232H24.2156C23.0955 35.1232 22.5355 35.1232 22.1076 35.3412C21.7313 35.533 21.4254 35.8389 21.2336 36.2153C21.0156 36.6431 21.0156 37.2031 21.0156 38.3232V41.9232C21.0156 43.0433 21.0156 43.6034 21.2336 44.0312C21.4254 44.4075 21.7313 44.7135 22.1076 44.9052C22.5355 45.1232 23.0955 45.1232 24.2156 45.1232H30.0156M31.0156 40.1232H31.0206M36.0156 40.1232H36.0206M26.0156 40.1232H26.0206M38.2656 47.1232V45.3732C38.2656 44.4067 37.4821 43.6232 36.5156 43.6232C35.5491 43.6232 34.7656 44.4067 34.7656 45.3732V47.1232M31.2656 40.1232C31.2656 40.2613 31.1537 40.3732 31.0156 40.3732C30.8775 40.3732 30.7656 40.2613 30.7656 40.1232C30.7656 39.9852 30.8775 39.8732 31.0156 39.8732C31.1537 39.8732 31.2656 39.9852 31.2656 40.1232ZM36.2656 40.1232C36.2656 40.2613 36.1537 40.3732 36.0156 40.3732C35.8775 40.3732 35.7656 40.2613 35.7656 40.1232C35.7656 39.9852 35.8775 39.8732 36.0156 39.8732C36.1537 39.8732 36.2656 39.9852 36.2656 40.1232ZM26.2656 40.1232C26.2656 40.2613 26.1537 40.3732 26.0156 40.3732C25.8776 40.3732 25.7656 40.2613 25.7656 40.1232C25.7656 39.9852 25.8776 39.8732 26.0156 39.8732C26.1537 39.8732 26.2656 39.9852 26.2656 40.1232ZM34.6156 51.1232H38.4156C38.9757 51.1232 39.2557 51.1232 39.4696 51.0142C39.6578 50.9183 39.8107 50.7654 39.9066 50.5772C40.0156 50.3633 40.0156 50.0833 40.0156 49.5232V48.7232C40.0156 48.1631 40.0156 47.8831 39.9066 47.6692C39.8107 47.481 39.6578 47.3281 39.4696 47.2322C39.2557 47.1232 38.9757 47.1232 38.4156 47.1232H34.6156C34.0555 47.1232 33.7755 47.1232 33.5616 47.2322C33.3734 47.3281 33.2205 47.481 33.1246 47.6692C33.0156 47.8831 33.0156 48.1631 33.0156 48.7232V49.5232C33.0156 50.0833 33.0156 50.3633 33.1246 50.5772C33.2205 50.7654 33.3734 50.9183 33.5616 51.0142C33.7755 51.1232 34.0555 51.1232 34.6156 51.1232Z" stroke="#1E1715" stroke-width="2" stroke-linecap="round" stroke-linejoin="round"/>
<path d="M21.2105 24.1152C22.2505 23.1712 22.8745 22.4512 22.8745 21.5072C22.8745 20.5632 22.1865 19.9552 21.0985 19.9552C19.9945 19.9552 19.0345 20.6752 18.4265 21.4432L17.3385 19.7472C17.4825 19.4112 18.8425 17.9232 21.3385 17.9232C23.8345 17.9232 25.3545 19.2512 25.3545 21.1872C25.3545 23.1232 23.9145 24.2752 23.0345 25.0592L20.7465 27.1232H25.8665V29.1232H17.7705L17.4665 27.4912L21.2105 24.1152ZM27.5461 18.0832H34.4421V20.1472H30.1221V22.8512H34.1861V24.9152H30.1221V29.1232H27.5461V18.0832ZM38.2747 18.0832H40.9627L45.1227 29.1232H42.3067L41.5227 26.8992H37.5867L36.8027 29.1232H34.1147L38.2747 18.0832ZM40.9307 24.8832L39.5547 20.9152L38.1787 24.8832H40.9307Z" fill="#1E1715"/>
</svg>
