<svg xmlns="http://www.w3.org/2000/svg" width="60" height="60" viewBox="0 0 60 60"><g transform="translate(-308 -2496.992)"><g transform="translate(308 2496.992)" fill="none" stroke="#1d1815" stroke-width="2"><rect width="60" height="60" rx="6" stroke="none"/><rect x="1" y="1" width="58" height="58" rx="5" fill="none"/></g><path d="M17.2,10.375a4.615,4.615,0,1,1,1.241-6.2M7.274,25.849h3.442a5.581,5.581,0,0,1,1.33.16l3.637.884a5.638,5.638,0,0,0,2.409.056l4.021-.782a5.544,5.544,0,0,0,2.8-1.46l2.845-2.767a1.982,1.982,0,0,0,0-2.859,2.123,2.123,0,0,0-2.717-.188L21.729,21.31a2.791,2.791,0,0,1-1.647.534H18.919A2.051,2.051,0,0,0,21,19.822v-.4a2.032,2.032,0,0,0-1.574-1.961l-3.145-.765a6.632,6.632,0,0,0-1.563-.187,12.177,12.177,0,0,0-3.575,1.053L7.274,19.174M25.734,7.934a4.615,4.615,0,1,1-4.615-4.615A4.615,4.615,0,0,1,25.734,7.934ZM2,18.614v7.648a3.276,3.276,0,0,0,.144,1.39,1.319,1.319,0,0,0,.576.576,3.276,3.276,0,0,0,1.39.144H5.165a3.276,3.276,0,0,0,1.39-.144,1.319,1.319,0,0,0,.576-.576,3.276,3.276,0,0,0,.144-1.39V18.614a3.276,3.276,0,0,0-.144-1.39,1.319,1.319,0,0,0-.576-.576,3.276,3.276,0,0,0-1.39-.144H4.11a3.276,3.276,0,0,0-1.39.144,1.319,1.319,0,0,0-.576.576A3.276,3.276,0,0,0,2,18.614Z" transform="translate(322.815 2511.806)" fill="none" stroke="#1d1815" stroke-linecap="round" stroke-linejoin="round" stroke-width="2"/></g></svg>