<svg width="35" height="35" viewBox="0 0 35 35" fill="none" xmlns="http://www.w3.org/2000/svg">
<path d="M22.911 6.79657L27.7366 11.6222M27.7366 11.6222L32.5623 6.79657M27.7366 11.6222V1.97095M17.2811 3.57949H9.72099C7.01839 3.57949 5.66708 3.57949 4.63484 4.10545C3.72683 4.5681 2.98861 5.30632 2.52596 6.21432C2 7.24657 2 8.59787 2 11.3005V24.8122C2 27.5149 2 28.8661 2.52596 29.8984C2.98861 30.8064 3.72683 31.5446 4.63484 32.0072C5.66708 32.5332 7.01839 32.5332 9.72099 32.5332H24.5196C26.0155 32.5332 26.7635 32.5332 27.3771 32.3688C29.0423 31.9226 30.3431 30.6218 30.7893 28.9566C30.9537 28.343 30.9537 27.595 30.9537 26.099M14.064 12.4265C14.064 14.2032 12.6237 15.6435 10.847 15.6435C9.07022 15.6435 7.62989 14.2032 7.62989 12.4265C7.62989 10.6497 9.07022 9.20938 10.847 9.20938C12.6237 9.20938 14.064 10.6497 14.064 12.4265ZM21.2864 17.9246L7.68 30.2941C6.91467 30.99 6.53201 31.3377 6.49817 31.6392C6.46883 31.9004 6.56898 32.1594 6.76641 32.3329C6.99416 32.5332 7.51131 32.5332 8.54562 32.5332H23.6445C25.9594 32.5332 27.1169 32.5332 28.026 32.1443C29.1673 31.6561 30.0766 30.7468 30.5648 29.6055C30.9537 28.6964 30.9537 27.5388 30.9537 25.224C30.9537 24.445 30.9537 24.0556 30.8686 23.693C30.7615 23.2371 30.5564 22.8102 30.2674 22.4419C30.0373 22.1488 29.7332 21.9054 29.125 21.419L24.6254 17.8194C24.0167 17.3323 23.7124 17.0888 23.3772 17.0029C23.0817 16.9272 22.7709 16.937 22.4807 17.0312C22.1516 17.138 21.8632 17.4002 21.2864 17.9246Z" stroke="#1E1715" stroke-width="3" stroke-linecap="round" stroke-linejoin="round"/>
</svg>
