<svg width="137" height="112" viewBox="0 0 137 112" fill="none" xmlns="http://www.w3.org/2000/svg">
<path d="M64.7225 108.415C65.9206 109.114 66.5196 109.463 67.3649 109.645C68.0213 109.785 68.9781 109.785 69.6345 109.645C70.4797 109.463 71.0788 109.114 72.2769 108.415C82.8184 102.265 111.791 82.9462 111.791 56.3846V30.5046C111.791 26.1781 111.791 24.0148 111.084 22.1553C110.459 20.5126 109.443 19.0468 108.124 17.8847C106.632 16.5693 104.606 15.8097 100.555 14.2905L71.5399 3.40982C70.4148 2.98795 69.8526 2.77701 69.2735 2.6934C68.7605 2.61921 68.2389 2.61921 67.7259 2.6934C67.1468 2.77701 66.5846 2.98795 65.4595 3.40982L36.4444 14.2905C32.3933 15.8097 30.3678 16.5693 28.8751 17.8847C27.5565 19.0468 26.5407 20.5126 25.9156 22.1553C25.208 24.0148 25.208 26.1781 25.208 30.5046V56.3846C25.208 82.9462 54.1808 102.265 64.7225 108.415Z" stroke="#1E1715" stroke-width="4" stroke-linecap="round" stroke-linejoin="round"/>
<path d="M60.9118 28.0603H60.7553V24.9623C60.7553 20.6848 64.2229 17.2171 68.5004 17.2171C72.7779 17.2171 76.2456 20.6848 76.2456 24.9623V28.0603H76.0891M68.5004 34.2565V37.3545M79.3436 35.8055C79.3436 41.794 74.489 46.6487 68.5004 46.6487C62.5119 46.6487 57.6572 41.794 57.6572 35.8055C57.6572 29.8169 62.5119 24.9623 68.5004 24.9623C74.489 24.9623 79.3436 29.8169 79.3436 35.8055Z" stroke="#1E1715" stroke-width="3" stroke-linecap="round" stroke-linejoin="round"/>
<path d="M14.1426 44.0995C14.1426 44.0995 37.324 38.6323 68.5003 38.6323C99.6766 38.6323 122.858 44.0995 122.858 44.0995V69.3152C122.858 69.3152 98.8165 64.9415 68.5003 64.9415C38.1841 64.9415 14.1426 69.3152 14.1426 69.3152V44.0995Z" fill="#1E1715"/>
<path d="M77.1175 54.2477C78.1016 55.2712 79.6171 55.96 80.6602 55.96C81.6837 55.96 82.471 55.468 82.471 54.5626C82.471 53.6376 81.4475 53.303 80.8767 53.0668L78.9873 52.3583C77.275 51.7285 76.1334 50.705 76.1334 48.6975C76.1334 45.9026 78.633 44.643 81.1326 44.643C82.7071 44.643 84.5179 45.3909 85.4429 46.316L84.0849 48.54C83.2976 47.7527 82.0773 47.1623 81.0539 47.1623C80.0304 47.1623 79.2825 47.5559 79.2825 48.3825C79.2825 49.2092 80.0107 49.5241 80.6602 49.7603L82.6875 50.5279C84.3998 51.1774 85.6397 52.2795 85.6397 54.2477C85.6397 57.2 82.9827 58.6171 80.365 58.6171C78.3968 58.6171 76.6451 57.5936 75.543 56.5702L77.1175 54.2477Z" fill="white"/>
<path d="M65.5312 44.8004H74.329V47.3393H68.7V50.1145H74.0141V52.6534H68.7V55.8025H74.5061V58.3808H65.5312V44.8004Z" fill="white"/>
<path d="M55.9522 44.8004H59.2588L64.376 58.3808H60.912L59.9476 55.6451H55.1059L54.1415 58.3808H50.835L55.9522 44.8004ZM59.2194 53.1651L57.5268 48.2841L55.8341 53.1651H59.2194Z" fill="white"/>
<path d="M82.8467 76.8109C82.2693 76.3561 81.2371 75.9187 80.2574 75.9187C79.4701 75.9187 78.9453 76.1811 78.4729 76.636C77.9656 77.1433 77.5107 78.1405 77.5107 79.4702C77.8431 79.1028 78.6829 78.228 80.5548 78.228C82.4268 78.228 84.2638 79.5401 84.2638 81.9194C84.2638 84.2988 82.5667 86.2232 79.7501 86.2232C77.7206 86.2232 76.496 85.121 75.8662 84.2113C75.2714 83.3715 74.834 82.0944 74.834 80.1525C74.834 77.9831 75.4463 76.3036 76.4435 75.2714C77.3707 74.2917 78.5429 73.7843 80.1349 73.7843C81.7795 73.7843 83.0041 74.3441 83.8789 74.9565L82.8467 76.8109ZM79.6626 84.1063C80.8872 84.1063 81.587 83.1791 81.587 82.1119C81.587 81.0622 80.8872 80.1175 79.6626 80.1175C78.4204 80.1175 77.7032 81.0622 77.7032 82.1119C77.7032 83.1791 78.4204 84.1063 79.6626 84.1063Z" fill="#1E1715"/>
<path d="M65.1081 82.5842C65.7729 83.5114 67.0325 84.0363 68.0647 84.0363C69.0969 84.0363 70.3391 83.4415 70.3391 81.9894C70.3391 80.5548 69.1494 79.96 68.0647 79.96C67.2775 79.96 66.4027 80.2049 65.8604 80.5898L64.6357 79.855L65.563 73.9592H72.6309V76.1286H67.6099L67.26 78.2979C67.6274 78.1405 68.0822 78.0355 68.8695 78.0355C70.7065 78.0355 73.0858 79.1902 73.0858 81.9894C73.0858 84.8061 70.654 86.2231 68.2572 86.2231C65.8429 86.2231 64.3733 85.121 63.8135 84.2462L65.1081 82.5842Z" fill="#1E1715"/>
<path d="M57.1996 80.5549C58.3368 79.5227 59.0191 78.7355 59.0191 77.7033C59.0191 76.6711 58.2668 76.0062 57.0771 76.0062C55.87 76.0062 54.8203 76.7935 54.1555 77.6333L52.9658 75.7788C53.1233 75.4114 54.6103 73.7844 57.3396 73.7844C60.0688 73.7844 61.7308 75.2365 61.7308 77.3534C61.7308 79.4702 60.1562 80.7299 59.194 81.5871L56.6922 83.844H62.2906V86.0308H53.4382L53.1058 84.2464L57.1996 80.5549Z" fill="#1E1715"/>
<path d="M136.32 48.573H115.306V72.4149H136.32L129.437 60.4939L136.32 48.573Z" fill="#1E1715"/>
<path d="M0.681433 48.573H21.6953V72.4149H0.681433L7.564 60.4939L0.681433 48.573Z" fill="#1E1715"/>
</svg>
