<svg width="33" height="35" viewBox="0 0 33 35" fill="none" xmlns="http://www.w3.org/2000/svg">
<path d="M16.1902 10.9403V17.319M16.1902 23.6977H16.2061M1.83813 10.8469V23.791C1.83813 24.3375 1.83813 24.6106 1.91863 24.8543C1.98987 25.0699 2.10629 25.2678 2.26013 25.4346C2.43405 25.6234 2.67287 25.7561 3.1505 26.0214L14.9511 32.5773C15.4034 32.8286 15.6295 32.9541 15.8689 33.0034C16.081 33.0471 16.2994 33.0471 16.5115 33.0034C16.7509 32.9541 16.977 32.8286 17.4292 32.5773L29.2298 26.0214C29.7076 25.7561 29.9463 25.6234 30.1203 25.4346C30.274 25.2678 30.3906 25.0699 30.4617 24.8543C30.5422 24.6106 30.5422 24.3375 30.5422 23.791V10.8469C30.5422 10.3005 30.5422 10.0273 30.4617 9.78364C30.3906 9.56807 30.274 9.3702 30.1203 9.20325C29.9463 9.01454 29.7076 8.88186 29.2298 8.61651L17.4292 2.06064C16.977 1.80938 16.7509 1.68375 16.5115 1.63449C16.2994 1.59091 16.081 1.59091 15.8689 1.63449C15.6295 1.68375 15.4034 1.80938 14.9511 2.06064L3.1505 8.61651C2.67287 8.88186 2.43405 9.01454 2.26013 9.20325C2.10629 9.3702 1.98987 9.56807 1.91863 9.78364C1.83813 10.0273 1.83813 10.3005 1.83813 10.8469Z" stroke="#1E1715" stroke-width="3" stroke-linecap="round" stroke-linejoin="round"/>
</svg>
