<svg width="233" height="201" viewBox="0 0 233 201" fill="none" xmlns="http://www.w3.org/2000/svg">
<path d="M0.509521 10.6228C0.509521 5.09997 4.98667 0.622803 10.5095 0.622803H233V200.953H10.5095C4.98666 200.953 0.509521 196.476 0.509521 190.953V10.6228Z" fill="white"/>
<path d="M102.727 58.0304H103.297L106.177 64.9504H105.327L104.557 63.0204H101.397L100.637 64.9504H99.8574L102.727 58.0304ZM104.297 62.3604L102.987 59.0504L101.667 62.3604H104.297ZM110.716 64.3104C110.716 64.3104 110.216 65.0604 108.816 65.0604C107.556 65.0604 106.486 64.1604 106.486 62.6104C106.486 61.1304 107.616 60.1704 108.856 60.1704C109.896 60.1704 110.346 60.5104 110.666 60.8004L110.336 61.3804C110.026 61.0904 109.616 60.8404 108.886 60.8404C107.976 60.8404 107.246 61.5204 107.246 62.6004C107.246 63.6704 107.966 64.3904 108.956 64.3904C109.926 64.3904 110.396 63.7704 110.396 63.7704L110.716 64.3104ZM113.633 64.9004C113.413 65.0004 113.143 65.0504 112.823 65.0504C112.403 65.0504 112.093 64.8804 111.933 64.6104C111.733 64.2804 111.703 63.7704 111.703 63.1504V60.8904H111.003V60.2704H111.703V58.8204H112.453V60.2704H113.603V60.8904H112.443V63.3004C112.443 63.6804 112.443 64.0104 112.593 64.2304C112.673 64.3504 112.853 64.4104 113.073 64.4104C113.363 64.4104 113.593 64.3004 113.593 64.3004L113.633 64.9004ZM114.372 58.6504C114.372 58.3604 114.592 58.1404 114.902 58.1404C115.202 58.1404 115.422 58.3604 115.422 58.6504C115.412 58.9404 115.202 59.1604 114.902 59.1604C114.592 59.1604 114.372 58.9404 114.372 58.6504ZM114.532 60.2604H115.272V64.9504H114.532V60.2604ZM116.389 62.6204C116.389 61.1904 117.459 60.1704 118.829 60.1704C120.199 60.1704 121.279 61.1904 121.279 62.6204C121.279 64.0604 120.199 65.0504 118.829 65.0504C117.459 65.0504 116.389 64.0604 116.389 62.6204ZM118.829 64.4004C119.869 64.4004 120.519 63.6004 120.519 62.6004C120.519 61.5904 119.869 60.8104 118.829 60.8104C117.789 60.8104 117.149 61.5904 117.149 62.6004C117.149 63.6004 117.789 64.4004 118.829 64.4004ZM122.353 60.2604H123.093V61.1104C123.303 60.4704 123.973 60.1704 124.583 60.1704C125.923 60.1704 126.243 60.9904 126.243 62.1104V64.9504H125.503V62.1604C125.503 61.2904 125.223 60.8104 124.353 60.8104C123.513 60.8104 123.093 61.5004 123.093 62.3104V64.9504H122.353V60.2604Z" fill="#AFAFAF"/>
<path d="M184.745 64.0304C184.285 64.5404 183.465 65.0704 182.185 65.0704C180.135 65.0704 178.705 63.6404 178.705 61.5104C178.705 59.3904 180.245 57.9504 182.215 57.9504C183.455 57.9504 184.245 58.4704 184.685 58.9104L184.305 59.5004C183.995 59.1004 183.195 58.6204 182.235 58.6204C180.615 58.6204 179.475 59.7804 179.475 61.4904C179.475 63.2004 180.645 64.3604 182.235 64.3604C183.165 64.3604 183.885 64.0204 184.365 63.5004L184.745 64.0304ZM185.335 62.6204C185.335 61.1904 186.405 60.1704 187.775 60.1704C189.145 60.1704 190.225 61.1904 190.225 62.6204C190.225 64.0604 189.145 65.0504 187.775 65.0504C186.405 65.0504 185.335 64.0604 185.335 62.6204ZM187.775 64.4004C188.815 64.4004 189.465 63.6004 189.465 62.6004C189.465 61.5904 188.815 60.8104 187.775 60.8104C186.735 60.8104 186.095 61.5904 186.095 62.6004C186.095 63.6004 186.735 64.4004 187.775 64.4004ZM191.3 60.2604H192.04V61.1104C192.25 60.4704 192.92 60.1704 193.53 60.1704C194.87 60.1704 195.19 60.9904 195.19 62.1104V64.9504H194.45V62.1604C194.45 61.2904 194.17 60.8104 193.3 60.8104C192.46 60.8104 192.04 61.5004 192.04 62.3104V64.9504H191.3V60.2604ZM200.244 64.9504C200.244 64.6904 200.234 64.4104 200.234 64.1404C199.894 64.7004 199.264 65.0504 198.474 65.0504C197.044 65.0504 196.234 64.0204 196.234 62.6104C196.234 61.2204 197.134 60.1704 198.514 60.1704C199.234 60.1704 199.864 60.5004 200.204 61.0604H200.224V58.0504H200.964V64.9504H200.244ZM198.624 64.4104C199.664 64.4104 200.244 63.6004 200.244 62.5904C200.244 61.5704 199.664 60.8004 198.624 60.8004C197.594 60.8004 196.994 61.5604 196.994 62.5804C196.994 63.5904 197.594 64.4104 198.624 64.4104ZM202.313 58.6504C202.313 58.3604 202.533 58.1404 202.843 58.1404C203.143 58.1404 203.363 58.3604 203.363 58.6504C203.353 58.9404 203.143 59.1604 202.843 59.1604C202.533 59.1604 202.313 58.9404 202.313 58.6504ZM202.473 60.2604H203.213V64.9504H202.473V60.2604ZM206.759 64.9004C206.539 65.0004 206.269 65.0504 205.949 65.0504C205.529 65.0504 205.219 64.8804 205.059 64.6104C204.859 64.2804 204.829 63.7704 204.829 63.1504V60.8904H204.129V60.2704H204.829V58.8204H205.579V60.2704H206.729V60.8904H205.569V63.3004C205.569 63.6804 205.569 64.0104 205.719 64.2304C205.799 64.3504 205.979 64.4104 206.199 64.4104C206.489 64.4104 206.719 64.3004 206.719 64.3004L206.759 64.9004ZM207.498 58.6504C207.498 58.3604 207.718 58.1404 208.028 58.1404C208.328 58.1404 208.548 58.3604 208.548 58.6504C208.538 58.9404 208.328 59.1604 208.028 59.1604C207.718 59.1604 207.498 58.9404 207.498 58.6504ZM207.658 60.2604H208.398V64.9504H207.658V60.2604ZM209.515 62.6204C209.515 61.1904 210.585 60.1704 211.955 60.1704C213.325 60.1704 214.405 61.1904 214.405 62.6204C214.405 64.0604 213.325 65.0504 211.955 65.0504C210.585 65.0504 209.515 64.0604 209.515 62.6204ZM211.955 64.4004C212.995 64.4004 213.645 63.6004 213.645 62.6004C213.645 61.5904 212.995 60.8104 211.955 60.8104C210.915 60.8104 210.275 61.5904 210.275 62.6004C210.275 63.6004 210.915 64.4004 211.955 64.4004ZM215.48 60.2604H216.22V61.1104C216.43 60.4704 217.1 60.1704 217.71 60.1704C219.05 60.1704 219.37 60.9904 219.37 62.1104V64.9504H218.63V62.1604C218.63 61.2904 218.35 60.8104 217.48 60.8104C216.64 60.8104 216.22 61.5004 216.22 62.3104V64.9504H215.48V60.2604Z" fill="#AFAFAF"/>
<path d="M18.9249 58.0504C20.1249 58.0504 21.0349 58.5104 21.5049 58.9704C21.9849 59.4204 22.5449 60.2404 22.5449 61.5104C22.5449 62.7804 21.9549 63.5704 21.4749 64.0304C21.0049 64.4804 20.1249 64.9504 18.9249 64.9504H16.9349V58.0504H18.9249ZM18.9049 64.2904C19.7949 64.2904 20.4649 63.9904 20.8749 63.6004C21.2849 63.2204 21.7649 62.5504 21.7649 61.5004C21.7649 60.6604 21.4849 59.9204 20.9449 59.4204C20.4449 58.9604 19.7149 58.7104 18.9049 58.7104H17.6849V64.2904H18.9049ZM26.5468 64.3304C26.3668 64.5304 25.8968 65.0504 25.0068 65.0504C24.1168 65.0504 23.3968 64.4804 23.3968 63.6204C23.3968 62.8204 23.9868 62.2604 25.2668 62.2004L26.5368 62.1404V61.9304C26.5368 61.1404 26.0068 60.7904 25.2968 60.7904C24.5968 60.7904 24.0368 61.0704 23.9068 61.1604L23.6568 60.6304C23.9668 60.4504 24.5868 60.1704 25.3268 60.1704C26.0668 60.1704 26.5368 60.3904 26.8268 60.7004C27.1168 61.0104 27.2868 61.4004 27.2868 62.2004V64.9504H26.5568L26.5468 64.3304ZM25.3268 62.7404C24.4568 62.7804 24.1668 63.1304 24.1668 63.6104C24.1668 64.0804 24.5568 64.4604 25.1568 64.4604C25.7968 64.4604 26.3268 64.0904 26.5468 63.7904V62.6804L25.3268 62.7404ZM30.6927 64.9004C30.4727 65.0004 30.2027 65.0504 29.8827 65.0504C29.4627 65.0504 29.1527 64.8804 28.9927 64.6104C28.7927 64.2804 28.7627 63.7704 28.7627 63.1504V60.8904H28.0627V60.2704H28.7627V58.8204H29.5127V60.2704H30.6627V60.8904H29.5027V63.3004C29.5027 63.6804 29.5027 64.0104 29.6527 64.2304C29.7327 64.3504 29.9127 64.4104 30.1327 64.4104C30.4227 64.4104 30.6527 64.3004 30.6527 64.3004L30.6927 64.9004ZM35.5519 64.2804C35.1119 64.8004 34.4419 65.0504 33.5219 65.0504C32.1419 65.0504 31.2119 64.1004 31.2119 62.5904C31.2119 61.2604 32.1219 60.1704 33.5219 60.1704C34.8119 60.1704 35.7019 61.1004 35.7019 62.3904C35.7019 62.5604 35.6719 62.7804 35.6719 62.7804H31.9719C31.9819 63.7504 32.6519 64.4304 33.6519 64.4304C34.5719 64.4304 35.2319 63.8404 35.2319 63.8404L35.5519 64.2804ZM34.9519 62.2204C34.9519 61.5604 34.5219 60.8004 33.4919 60.7904C32.5519 60.7804 32.0419 61.4904 31.9819 62.2204H34.9519Z" fill="#AFAFAF"/>
<path d="M44.1349 63.6521L41.1349 60.249H47.1349L44.1349 63.6521Z" fill="#AEAFAF"/>
<path d="M0.509521 38.676H233" stroke="#E8E7E7"/>
<path d="M23.572 19.2083C23.4828 18.9283 23.3628 18.6774 23.2119 18.4559C23.0642 18.2312 22.8873 18.0404 22.6811 17.8834C22.4748 17.7234 22.2394 17.6018 21.9747 17.5187C21.7131 17.4356 21.4254 17.3941 21.1115 17.3941C20.579 17.3941 20.0989 17.531 19.6711 17.8049C19.2433 18.0788 18.9048 18.4805 18.6555 19.0098C18.4093 19.5361 18.2862 20.1809 18.2862 20.9441C18.2862 21.7105 18.4108 22.3583 18.6601 22.8877C18.9094 23.417 19.251 23.8187 19.685 24.0926C20.1189 24.3665 20.6129 24.5034 21.1668 24.5034C21.6808 24.5034 22.1286 24.3988 22.5102 24.1895C22.8949 23.9802 23.1919 23.6848 23.4012 23.3032C23.6136 22.9184 23.7198 22.466 23.7198 21.9459L24.0891 22.0152H21.3838V20.838H25.1001V21.9136C25.1001 22.7076 24.9308 23.397 24.5923 23.9818C24.2568 24.5635 23.7921 25.0128 23.1981 25.3298C22.6072 25.6468 21.9301 25.8053 21.1668 25.8053C20.3113 25.8053 19.5603 25.6083 18.914 25.2144C18.2708 24.8204 17.7691 24.2618 17.409 23.5386C17.049 22.8123 16.8689 21.9505 16.8689 20.9534C16.8689 20.1993 16.9735 19.5223 17.1828 18.9221C17.3921 18.322 17.686 17.8126 18.0646 17.3941C18.4462 16.9724 18.894 16.6508 19.408 16.4292C19.925 16.2046 20.4898 16.0922 21.1022 16.0922C21.6131 16.0922 22.0886 16.1676 22.5287 16.3184C22.9719 16.4692 23.3658 16.6831 23.7105 16.9601C24.0583 17.2371 24.3461 17.5664 24.5738 17.948C24.8016 18.3266 24.9554 18.7467 25.0355 19.2083H23.572ZM29.8562 25.8191C29.1576 25.8191 28.5559 25.6699 28.0512 25.3713C27.5495 25.0697 27.1617 24.6466 26.8878 24.1018C26.617 23.554 26.4816 22.9123 26.4816 22.1767C26.4816 21.4504 26.617 20.8103 26.8878 20.2563C27.1617 19.7023 27.5434 19.2699 28.0327 18.9591C28.5251 18.6482 29.1006 18.4928 29.7593 18.4928C30.1594 18.4928 30.5471 18.559 30.9226 18.6913C31.2981 18.8236 31.6351 19.0314 31.9336 19.3145C32.2322 19.5977 32.4676 19.9654 32.6399 20.4179C32.8123 20.8672 32.8985 21.4135 32.8985 22.0567V22.5461H27.2618V21.512H31.5458C31.5458 21.1488 31.472 20.8272 31.3243 20.5471C31.1765 20.264 30.9688 20.0408 30.701 19.8777C30.4363 19.7146 30.1255 19.6331 29.7685 19.6331C29.3807 19.6331 29.0422 19.7285 28.7529 19.9193C28.4667 20.107 28.2451 20.3532 28.0881 20.6579C27.9342 20.9595 27.8573 21.2873 27.8573 21.6412V22.4491C27.8573 22.9231 27.9404 23.3262 28.1066 23.6586C28.2758 23.991 28.5113 24.2449 28.8129 24.4203C29.1145 24.5927 29.4669 24.6789 29.8701 24.6789C30.1317 24.6789 30.3702 24.6419 30.5856 24.5681C30.8011 24.4911 30.9872 24.3773 31.1442 24.2265C31.3012 24.0756 31.4212 23.8894 31.5043 23.6679L32.8108 23.9033C32.7061 24.288 32.5184 24.625 32.2475 24.9143C31.9798 25.2005 31.6428 25.4237 31.2365 25.5837C30.8334 25.7407 30.3733 25.8191 29.8562 25.8191ZM36.4936 25.833C36.0442 25.833 35.638 25.7499 35.2748 25.5837C34.9116 25.4144 34.6239 25.1698 34.4115 24.8497C34.2022 24.5296 34.0976 24.1372 34.0976 23.6725C34.0976 23.2724 34.1745 22.9431 34.3284 22.6845C34.4823 22.426 34.69 22.2214 34.9516 22.0706C35.2132 21.9198 35.5056 21.8059 35.8288 21.7289C36.1519 21.652 36.4812 21.5935 36.8167 21.5535C37.2414 21.5043 37.5861 21.4643 37.8508 21.4335C38.1155 21.3996 38.3078 21.3458 38.4279 21.2719C38.5479 21.198 38.6079 21.078 38.6079 20.9118V20.8795C38.6079 20.4763 38.494 20.164 38.2663 19.9424C38.0416 19.7208 37.7061 19.61 37.2599 19.61C36.7952 19.61 36.4289 19.7131 36.1612 19.9193C35.8965 20.1224 35.7134 20.3486 35.6118 20.5979L34.3146 20.3024C34.4685 19.8716 34.6931 19.5238 34.9886 19.2591C35.2871 18.9914 35.6303 18.7975 36.0181 18.6774C36.4058 18.5543 36.8136 18.4928 37.2414 18.4928C37.5246 18.4928 37.8246 18.5266 38.1416 18.5943C38.4617 18.659 38.7602 18.779 39.0372 18.9544C39.3173 19.1299 39.5466 19.3807 39.7251 19.7069C39.9036 20.0301 39.9928 20.4502 39.9928 20.9672V25.676H38.6448V24.7066H38.5894C38.5002 24.8851 38.3663 25.0605 38.1878 25.2328C38.0093 25.4052 37.78 25.5483 37.4999 25.6622C37.2199 25.776 36.8844 25.833 36.4936 25.833ZM36.7936 24.725C37.1753 24.725 37.5015 24.6496 37.7723 24.4988C38.0462 24.348 38.254 24.151 38.3955 23.9079C38.5402 23.6617 38.6125 23.3986 38.6125 23.1185V22.2044C38.5633 22.2537 38.4679 22.2998 38.3263 22.3429C38.1878 22.3829 38.0293 22.4183 37.8508 22.4491C37.6723 22.4768 37.4984 22.503 37.3291 22.5276C37.1599 22.5491 37.0183 22.5676 36.9044 22.583C36.6367 22.6168 36.392 22.6738 36.1704 22.7538C35.9519 22.8338 35.7765 22.9492 35.6441 23.1C35.5149 23.2478 35.4502 23.4447 35.4502 23.6909C35.4502 24.0326 35.5764 24.2911 35.8288 24.4665C36.0811 24.6389 36.4028 24.725 36.7936 24.725ZM41.8314 25.676V18.5851H43.1655V19.7115H43.2394C43.3686 19.3299 43.5964 19.0298 43.9226 18.8113C44.2519 18.5897 44.6243 18.4789 45.0398 18.4789C45.126 18.4789 45.2275 18.482 45.3445 18.4882C45.4645 18.4943 45.5584 18.502 45.6261 18.5113V19.8316C45.5707 19.8162 45.4722 19.7992 45.3306 19.7808C45.1891 19.7592 45.0475 19.7485 44.9059 19.7485C44.5797 19.7485 44.2889 19.8177 44.0334 19.9562C43.781 20.0916 43.581 20.2809 43.4333 20.524C43.2855 20.7641 43.2117 21.038 43.2117 21.3458V25.676H41.8314ZM50.3718 25.676V16.2215H51.7983V20.3301H56.5118V16.2215H57.9429V25.676H56.5118V21.5535H51.7983V25.676H50.3718ZM59.9095 25.676V18.5851H61.2898V25.676H59.9095ZM60.6066 17.491C60.3665 17.491 60.1603 17.411 59.988 17.251C59.8187 17.0878 59.7341 16.8939 59.7341 16.6693C59.7341 16.4415 59.8187 16.2476 59.988 16.0876C60.1603 15.9245 60.3665 15.8429 60.6066 15.8429C60.8466 15.8429 61.0513 15.9245 61.2206 16.0876C61.3929 16.2476 61.4791 16.4415 61.4791 16.6693C61.4791 16.8939 61.3929 17.0878 61.2206 17.251C61.0513 17.411 60.8466 17.491 60.6066 17.491ZM68.4603 20.3163L67.2093 20.5379C67.157 20.3778 67.0739 20.2255 66.96 20.0809C66.8492 19.9362 66.6984 19.8177 66.5076 19.7254C66.3168 19.6331 66.0782 19.5869 65.792 19.5869C65.4012 19.5869 65.0749 19.6746 64.8133 19.85C64.5517 20.0224 64.4209 20.2455 64.4209 20.5194C64.4209 20.7564 64.5086 20.9472 64.6841 21.0919C64.8595 21.2365 65.1426 21.355 65.5335 21.4473L66.6599 21.7059C67.3124 21.8567 67.7987 22.089 68.1187 22.4029C68.4388 22.7169 68.5988 23.1247 68.5988 23.6263C68.5988 24.051 68.4757 24.4296 68.2295 24.762C67.9864 25.0913 67.6463 25.3498 67.2093 25.5375C66.7753 25.7253 66.2721 25.8191 65.6997 25.8191C64.9057 25.8191 64.2578 25.6499 63.7562 25.3113C63.2545 24.9697 62.9467 24.485 62.8329 23.8571L64.167 23.654C64.2501 24.0018 64.4209 24.2649 64.6795 24.4434C64.938 24.6189 65.275 24.7066 65.6905 24.7066C66.1429 24.7066 66.5045 24.6127 66.7753 24.425C67.0462 24.2341 67.1816 24.0018 67.1816 23.7279C67.1816 23.5063 67.0985 23.3201 66.9323 23.1693C66.7692 23.0185 66.5184 22.9046 66.1798 22.8277L64.9795 22.5645C64.3178 22.4137 63.8285 22.1737 63.5115 21.8443C63.1976 21.515 63.0406 21.098 63.0406 20.5933C63.0406 20.1747 63.1576 19.8085 63.3915 19.4946C63.6254 19.1806 63.9485 18.936 64.3609 18.7605C64.7733 18.582 65.2457 18.4928 65.7782 18.4928C66.5445 18.4928 67.1477 18.659 67.5878 18.9914C68.0279 19.3207 68.3188 19.7623 68.4603 20.3163ZM73.4265 18.5851V19.6931H69.5533V18.5851H73.4265ZM70.592 16.8863H71.9723V23.594C71.9723 23.8617 72.0123 24.0633 72.0924 24.1988C72.1724 24.3311 72.2755 24.4219 72.4017 24.4711C72.5309 24.5173 72.671 24.5404 72.8218 24.5404C72.9326 24.5404 73.0295 24.5327 73.1126 24.5173C73.1957 24.5019 73.2603 24.4896 73.3065 24.4804L73.5558 25.6206C73.4758 25.6514 73.3619 25.6822 73.2142 25.713C73.0664 25.7468 72.8818 25.7653 72.6602 25.7684C72.297 25.7745 71.9585 25.7099 71.6446 25.5745C71.3306 25.439 71.0767 25.2298 70.8828 24.9466C70.689 24.6635 70.592 24.308 70.592 23.8802V16.8863ZM77.8641 25.8191C77.1993 25.8191 76.6192 25.6668 76.1237 25.3621C75.6282 25.0574 75.2435 24.6312 74.9696 24.0833C74.6957 23.5355 74.5587 22.8954 74.5587 22.1629C74.5587 21.4273 74.6957 20.7841 74.9696 20.2332C75.2435 19.6823 75.6282 19.2545 76.1237 18.9498C76.6192 18.6451 77.1993 18.4928 77.8641 18.4928C78.5289 18.4928 79.109 18.6451 79.6045 18.9498C80.1 19.2545 80.4847 19.6823 80.7586 20.2332C81.0326 20.7841 81.1695 21.4273 81.1695 22.1629C81.1695 22.8954 81.0326 23.5355 80.7586 24.0833C80.4847 24.6312 80.1 25.0574 79.6045 25.3621C79.109 25.6668 78.5289 25.8191 77.8641 25.8191ZM77.8687 24.6604C78.2996 24.6604 78.6566 24.5465 78.9398 24.3188C79.2229 24.091 79.4322 23.7879 79.5676 23.4093C79.7061 23.0308 79.7753 22.6138 79.7753 22.1583C79.7753 21.7059 79.7061 21.2904 79.5676 20.9118C79.4322 20.5302 79.2229 20.224 78.9398 19.9931C78.6566 19.7623 78.2996 19.6469 77.8687 19.6469C77.4348 19.6469 77.0747 19.7623 76.7885 19.9931C76.5053 20.224 76.2945 20.5302 76.156 20.9118C76.0206 21.2904 75.9529 21.7059 75.9529 22.1583C75.9529 22.6138 76.0206 23.0308 76.156 23.4093C76.2945 23.7879 76.5053 24.091 76.7885 24.3188C77.0747 24.5465 77.4348 24.6604 77.8687 24.6604ZM82.7103 25.676V18.5851H84.0444V19.7115H84.1183C84.2475 19.3299 84.4753 19.0298 84.8015 18.8113C85.1308 18.5897 85.5032 18.4789 85.9187 18.4789C86.0049 18.4789 86.1064 18.482 86.2234 18.4882C86.3434 18.4943 86.4373 18.502 86.505 18.5113V19.8316C86.4496 19.8162 86.3511 19.7992 86.2096 19.7808C86.068 19.7592 85.9264 19.7485 85.7848 19.7485C85.4586 19.7485 85.1678 19.8177 84.9123 19.9562C84.66 20.0916 84.4599 20.2809 84.3122 20.524C84.1645 20.7641 84.0906 21.038 84.0906 21.3458V25.676H82.7103ZM88.7879 28.3351C88.5817 28.3351 88.3939 28.3182 88.2246 28.2843C88.0554 28.2536 87.9292 28.2197 87.8461 28.1828L88.1785 27.0517C88.4308 27.1194 88.6555 27.1487 88.8525 27.1394C89.0495 27.1302 89.2233 27.0564 89.3741 26.9179C89.528 26.7794 89.6634 26.5532 89.7804 26.2392L89.9512 25.7684L87.3567 18.5851H88.834L90.6298 24.088H90.7037L92.4995 18.5851H93.9814L91.0592 26.6224C90.9237 26.9917 90.7514 27.3041 90.5421 27.5595C90.3328 27.8181 90.0835 28.012 89.7942 28.1412C89.5049 28.2705 89.1695 28.3351 88.7879 28.3351Z" fill="black"/>
<path d="M16.6349 105.288H233" stroke="#E8E7E7"/>
<path d="M16.6349 77.0767H233" stroke="#E8E7E7"/>
<path d="M18.9949 94.3978C17.1949 94.3978 16.4249 92.6278 16.4249 90.8478C16.4249 89.0578 17.2049 87.2878 18.9949 87.2878C20.8049 87.2878 21.5649 89.0578 21.5649 90.8478C21.5649 92.6278 20.8049 94.3978 18.9949 94.3978ZM18.9949 93.7278C20.1749 93.7278 20.7849 92.5178 20.7849 90.8278C20.7849 89.1378 20.1749 87.9478 18.9949 87.9478C17.8149 87.9478 17.2049 89.1378 17.2049 90.8278C17.2049 92.5178 17.8149 93.7278 18.9949 93.7278ZM23.7473 90.6278C23.3173 90.4478 22.6573 90.0878 22.6573 89.0478C22.6573 87.9378 23.6273 87.2878 24.7273 87.2878C25.8373 87.2878 26.7973 87.9378 26.7973 89.0478C26.7973 90.0878 26.1473 90.4478 25.7073 90.6278V90.6478C26.4773 90.8978 27.0173 91.5178 27.0173 92.3978C27.0173 93.6778 26.0573 94.3978 24.7273 94.3978C23.3973 94.3978 22.4473 93.6778 22.4473 92.3978C22.4473 91.5178 22.9773 90.8978 23.7473 90.6478V90.6278ZM23.4073 89.1278C23.4073 89.9178 23.9873 90.3378 24.7273 90.3378C25.4773 90.3378 26.0473 89.9178 26.0473 89.1278C26.0473 88.3378 25.4773 87.9078 24.7273 87.9078C23.9873 87.9078 23.4073 88.3378 23.4073 89.1278ZM23.1973 92.3478C23.1973 93.2378 23.8973 93.7778 24.7273 93.7778C25.5673 93.7778 26.2673 93.2378 26.2673 92.3478C26.2673 91.4678 25.6073 90.9378 24.7273 90.9378C23.8473 90.9378 23.1973 91.4678 23.1973 92.3478ZM31.9797 86.4078L32.5197 86.6578L28.3497 95.1978L27.8097 94.9478L31.9797 86.4078ZM35.5769 94.3978C33.7769 94.3978 33.0069 92.6278 33.0069 90.8478C33.0069 89.0578 33.7869 87.2878 35.5769 87.2878C37.3869 87.2878 38.1469 89.0578 38.1469 90.8478C38.1469 92.6278 37.3869 94.3978 35.5769 94.3978ZM35.5769 93.7278C36.7569 93.7278 37.3669 92.5178 37.3669 90.8278C37.3669 89.1378 36.7569 87.9478 35.5769 87.9478C34.3969 87.9478 33.7869 89.1378 33.7869 90.8278C33.7869 92.5178 34.3969 93.7278 35.5769 93.7278ZM38.649 88.0478V87.3878H43.269L43.479 87.8178L40.059 94.2878H39.209L42.549 88.0478H38.649ZM48.1614 86.4078L48.7014 86.6578L44.5314 95.1978L43.9914 94.9478L48.1614 86.4078ZM51.9586 91.3578C52.7186 90.5978 53.1486 90.1178 53.1486 89.3378C53.1486 88.5078 52.6386 87.9278 51.6786 87.9278C50.8186 87.9278 50.1686 88.5878 49.9286 89.0378L49.4686 88.5878C49.6886 88.1078 50.4386 87.2878 51.7086 87.2878C53.1086 87.2878 53.8986 88.0978 53.8986 89.3178C53.8986 90.3778 53.2386 90.9978 52.6186 91.6078L50.5786 93.6378H54.1786V94.2878H49.6486L49.5286 93.7678L51.9586 91.3578ZM57.491 94.3978C55.691 94.3978 54.921 92.6278 54.921 90.8478C54.921 89.0578 55.701 87.2878 57.491 87.2878C59.301 87.2878 60.061 89.0578 60.061 90.8478C60.061 92.6278 59.301 94.3978 57.491 94.3978ZM57.491 93.7278C58.671 93.7278 59.281 92.5178 59.281 90.8278C59.281 89.1378 58.671 87.9478 57.491 87.9478C56.311 87.9478 55.701 89.1378 55.701 90.8278C55.701 92.5178 56.311 93.7278 57.491 93.7278ZM63.4234 91.3578C64.1834 90.5978 64.6134 90.1178 64.6134 89.3378C64.6134 88.5078 64.1034 87.9278 63.1434 87.9278C62.2834 87.9278 61.6334 88.5878 61.3934 89.0378L60.9334 88.5878C61.1534 88.1078 61.9034 87.2878 63.1734 87.2878C64.5734 87.2878 65.3634 88.0978 65.3634 89.3178C65.3634 90.3778 64.7034 90.9978 64.0834 91.6078L62.0434 93.6378H65.6434V94.2878H61.1134L60.9934 93.7678L63.4234 91.3578ZM67.0458 92.7778C67.3458 93.2878 67.9258 93.7678 68.7358 93.7678C69.6058 93.7678 70.4458 93.2078 70.4458 92.1078C70.4458 91.0178 69.6458 90.4978 68.7658 90.4978C68.2958 90.4978 67.7758 90.6778 67.5258 90.8678L67.1058 90.6278L67.7458 87.3878H71.0258L71.0158 88.0478H68.2858L67.8358 90.1378C68.0858 89.9778 68.5658 89.8978 68.9558 89.8978C70.1958 89.8978 71.2058 90.6578 71.2058 92.0878C71.2058 93.5878 70.0058 94.4078 68.7258 94.4078C67.4558 94.4078 66.7958 93.6278 66.5758 93.2078L67.0458 92.7778Z" fill="#1E1715"/>
<path d="M100.617 87.3878H101.367V94.2878H100.617V87.3878ZM102.871 89.5978H103.611V90.4478C103.821 89.8078 104.491 89.5078 105.101 89.5078C106.441 89.5078 106.761 90.3278 106.761 91.4478V94.2878H106.021V91.4978C106.021 90.6278 105.741 90.1478 104.871 90.1478C104.031 90.1478 103.611 90.8378 103.611 91.6478V94.2878H102.871V89.5978ZM108.075 93.0878C108.525 93.5978 108.995 93.7978 109.445 93.7978C109.955 93.7978 110.445 93.5778 110.445 93.0178C110.445 92.5378 109.845 92.3278 109.455 92.2078L109.295 92.1478C108.955 92.0378 107.955 91.8078 107.955 90.8178C107.955 89.9578 108.705 89.5078 109.465 89.5078C110.225 89.5078 110.675 89.7578 111.005 90.0578L110.645 90.5078C110.315 90.2278 109.885 90.0778 109.465 90.0778C108.975 90.0778 108.635 90.3078 108.635 90.7478C108.635 91.1778 109.115 91.3778 109.635 91.5478L109.805 91.6078C110.315 91.7778 111.145 92.0678 111.145 92.9578C111.145 93.8578 110.395 94.3878 109.425 94.3878C108.655 94.3878 108.035 94.0578 107.685 93.5578L108.075 93.0878ZM112.208 89.5878H112.948V90.4178C113.208 89.9778 113.838 89.5078 114.668 89.5078C116.108 89.5078 116.948 90.5478 116.948 91.9378C116.948 93.3278 115.998 94.3878 114.688 94.3878C113.998 94.3878 113.318 94.1178 112.958 93.4878C112.948 93.8178 112.948 94.1478 112.948 94.4778V96.1678H112.208V89.5878ZM114.528 93.7378C115.568 93.7378 116.178 92.9478 116.178 91.9378C116.178 90.9178 115.588 90.1278 114.548 90.1278C113.608 90.1278 112.918 90.9178 112.918 91.9378C112.918 92.9478 113.478 93.7378 114.528 93.7378ZM122.018 93.6178C121.578 94.1378 120.908 94.3878 119.988 94.3878C118.608 94.3878 117.678 93.4378 117.678 91.9278C117.678 90.5978 118.588 89.5078 119.988 89.5078C121.278 89.5078 122.168 90.4378 122.168 91.7278C122.168 91.8978 122.138 92.1178 122.138 92.1178H118.438C118.448 93.0878 119.118 93.7678 120.118 93.7678C121.038 93.7678 121.698 93.1778 121.698 93.1778L122.018 93.6178ZM121.418 91.5578C121.418 90.8978 120.988 90.1378 119.958 90.1278C119.018 90.1178 118.508 90.8278 118.448 91.5578H121.418ZM127.142 93.6478C127.142 93.6478 126.642 94.3978 125.242 94.3978C123.982 94.3978 122.912 93.4978 122.912 91.9478C122.912 90.4678 124.042 89.5078 125.282 89.5078C126.322 89.5078 126.772 89.8478 127.092 90.1378L126.762 90.7178C126.452 90.4278 126.042 90.1778 125.312 90.1778C124.402 90.1778 123.672 90.8578 123.672 91.9378C123.672 93.0078 124.392 93.7278 125.382 93.7278C126.352 93.7278 126.822 93.1078 126.822 93.1078L127.142 93.6478ZM130.059 94.2378C129.839 94.3378 129.569 94.3878 129.249 94.3878C128.829 94.3878 128.519 94.2178 128.359 93.9478C128.159 93.6178 128.129 93.1078 128.129 92.4878V90.2278H127.429V89.6078H128.129V88.1578H128.879V89.6078H130.029V90.2278H128.869V92.6378C128.869 93.0178 128.869 93.3478 129.019 93.5678C129.099 93.6878 129.279 93.7478 129.499 93.7478C129.789 93.7478 130.019 93.6378 130.019 93.6378L130.059 94.2378ZM134.918 93.6178C134.478 94.1378 133.808 94.3878 132.888 94.3878C131.508 94.3878 130.578 93.4378 130.578 91.9278C130.578 90.5978 131.488 89.5078 132.888 89.5078C134.178 89.5078 135.068 90.4378 135.068 91.7278C135.068 91.8978 135.038 92.1178 135.038 92.1178H131.338C131.348 93.0878 132.018 93.7678 133.018 93.7678C133.938 93.7678 134.598 93.1778 134.598 93.1778L134.918 93.6178ZM134.318 91.5578C134.318 90.8978 133.888 90.1378 132.858 90.1278C131.918 90.1178 131.408 90.8278 131.348 91.5578H134.318ZM139.822 94.2878C139.822 94.0278 139.812 93.7478 139.812 93.4778C139.472 94.0378 138.842 94.3878 138.052 94.3878C136.622 94.3878 135.812 93.3578 135.812 91.9478C135.812 90.5578 136.712 89.5078 138.092 89.5078C138.812 89.5078 139.442 89.8378 139.782 90.3978H139.802V87.3878H140.542V94.2878H139.822ZM138.202 93.7478C139.242 93.7478 139.822 92.9378 139.822 91.9278C139.822 90.9078 139.242 90.1378 138.202 90.1378C137.172 90.1378 136.572 90.8978 136.572 91.9178C136.572 92.9278 137.172 93.7478 138.202 93.7478Z" fill="#1E1715"/>
<path d="M179.105 87.3878H182.775V88.0378H179.855V90.5478H182.595V91.1978H179.855V94.2878H179.105V87.3878ZM186.754 93.6678C186.574 93.8678 186.104 94.3878 185.214 94.3878C184.324 94.3878 183.604 93.8178 183.604 92.9578C183.604 92.1578 184.194 91.5978 185.474 91.5378L186.744 91.4778V91.2678C186.744 90.4778 186.214 90.1278 185.504 90.1278C184.804 90.1278 184.244 90.4078 184.114 90.4978L183.864 89.9678C184.174 89.7878 184.794 89.5078 185.534 89.5078C186.274 89.5078 186.744 89.7278 187.034 90.0378C187.324 90.3478 187.494 90.7378 187.494 91.5378V94.2878H186.764L186.754 93.6678ZM185.534 92.0778C184.664 92.1178 184.374 92.4678 184.374 92.9478C184.374 93.4178 184.764 93.7978 185.364 93.7978C186.004 93.7978 186.534 93.4278 186.754 93.1278V92.0178L185.534 92.0778ZM188.69 87.9878C188.69 87.6978 188.91 87.4778 189.22 87.4778C189.52 87.4778 189.74 87.6978 189.74 87.9878C189.73 88.2778 189.52 88.4978 189.22 88.4978C188.91 88.4978 188.69 88.2778 188.69 87.9878ZM188.85 89.5978H189.59V94.2878H188.85V89.5978ZM191.036 89.5978H191.776V90.3978C191.996 89.8278 192.446 89.5078 192.966 89.5078C193.276 89.5078 193.466 89.5878 193.466 89.5878L193.416 90.2878H193.386C193.226 90.2178 193.016 90.1978 192.876 90.1978C192.446 90.1978 192.166 90.4978 192.086 90.6078C191.896 90.8778 191.776 91.1478 191.776 91.8578V94.2878H191.036V89.5978Z" fill="#1E1715"/>
<path d="M16.6349 133.499H233" stroke="#E8E7E7"/>
<path d="M16.6349 105.288H233" stroke="#E8E7E7"/>
<path d="M18.9949 122.609C17.1949 122.609 16.4249 120.839 16.4249 119.059C16.4249 117.269 17.2049 115.499 18.9949 115.499C20.8049 115.499 21.5649 117.269 21.5649 119.059C21.5649 120.839 20.8049 122.609 18.9949 122.609ZM18.9949 121.939C20.1749 121.939 20.7849 120.729 20.7849 119.039C20.7849 117.349 20.1749 116.159 18.9949 116.159C17.8149 116.159 17.2049 117.349 17.2049 119.039C17.2049 120.729 17.8149 121.939 18.9949 121.939ZM23.7473 118.839C23.3173 118.659 22.6573 118.299 22.6573 117.259C22.6573 116.149 23.6273 115.499 24.7273 115.499C25.8373 115.499 26.7973 116.149 26.7973 117.259C26.7973 118.299 26.1473 118.659 25.7073 118.839V118.859C26.4773 119.109 27.0173 119.729 27.0173 120.609C27.0173 121.889 26.0573 122.609 24.7273 122.609C23.3973 122.609 22.4473 121.889 22.4473 120.609C22.4473 119.729 22.9773 119.109 23.7473 118.859V118.839ZM23.4073 117.339C23.4073 118.129 23.9873 118.549 24.7273 118.549C25.4773 118.549 26.0473 118.129 26.0473 117.339C26.0473 116.549 25.4773 116.119 24.7273 116.119C23.9873 116.119 23.4073 116.549 23.4073 117.339ZM23.1973 120.559C23.1973 121.449 23.8973 121.989 24.7273 121.989C25.5673 121.989 26.2673 121.449 26.2673 120.559C26.2673 119.679 25.6073 119.149 24.7273 119.149C23.8473 119.149 23.1973 119.679 23.1973 120.559ZM31.9797 114.619L32.5197 114.869L28.3497 123.409L27.8097 123.159L31.9797 114.619ZM35.5769 122.609C33.7769 122.609 33.0069 120.839 33.0069 119.059C33.0069 117.269 33.7869 115.499 35.5769 115.499C37.3869 115.499 38.1469 117.269 38.1469 119.059C38.1469 120.839 37.3869 122.609 35.5769 122.609ZM35.5769 121.939C36.7569 121.939 37.3669 120.729 37.3669 119.039C37.3669 117.349 36.7569 116.159 35.5769 116.159C34.3969 116.159 33.7869 117.349 33.7869 119.039C33.7869 120.729 34.3969 121.939 35.5769 121.939ZM38.649 116.259V115.599H43.269L43.479 116.029L40.059 122.499H39.209L42.549 116.259H38.649ZM48.1614 114.619L48.7014 114.869L44.5314 123.409L43.9914 123.159L48.1614 114.619ZM51.9586 119.569C52.7186 118.809 53.1486 118.329 53.1486 117.549C53.1486 116.719 52.6386 116.139 51.6786 116.139C50.8186 116.139 50.1686 116.799 49.9286 117.249L49.4686 116.799C49.6886 116.319 50.4386 115.499 51.7086 115.499C53.1086 115.499 53.8986 116.309 53.8986 117.529C53.8986 118.589 53.2386 119.209 52.6186 119.819L50.5786 121.849H54.1786V122.499H49.6486L49.5286 121.979L51.9586 119.569ZM57.491 122.609C55.691 122.609 54.921 120.839 54.921 119.059C54.921 117.269 55.701 115.499 57.491 115.499C59.301 115.499 60.061 117.269 60.061 119.059C60.061 120.839 59.301 122.609 57.491 122.609ZM57.491 121.939C58.671 121.939 59.281 120.729 59.281 119.039C59.281 117.349 58.671 116.159 57.491 116.159C56.311 116.159 55.701 117.349 55.701 119.039C55.701 120.729 56.311 121.939 57.491 121.939ZM63.4234 119.569C64.1834 118.809 64.6134 118.329 64.6134 117.549C64.6134 116.719 64.1034 116.139 63.1434 116.139C62.2834 116.139 61.6334 116.799 61.3934 117.249L60.9334 116.799C61.1534 116.319 61.9034 115.499 63.1734 115.499C64.5734 115.499 65.3634 116.309 65.3634 117.529C65.3634 118.589 64.7034 119.209 64.0834 119.819L62.0434 121.849H65.6434V122.499H61.1134L60.9934 121.979L63.4234 119.569ZM67.0458 120.989C67.3458 121.499 67.9258 121.979 68.7358 121.979C69.6058 121.979 70.4458 121.419 70.4458 120.319C70.4458 119.229 69.6458 118.709 68.7658 118.709C68.2958 118.709 67.7758 118.889 67.5258 119.079L67.1058 118.839L67.7458 115.599H71.0258L71.0158 116.259H68.2858L67.8358 118.349C68.0858 118.189 68.5658 118.109 68.9558 118.109C70.1958 118.109 71.2058 118.869 71.2058 120.299C71.2058 121.799 70.0058 122.619 68.7258 122.619C67.4558 122.619 66.7958 121.839 66.5758 121.419L67.0458 120.989Z" fill="#1E1715"/>
<path d="M106.257 121.579C105.797 122.089 104.977 122.619 103.697 122.619C101.647 122.619 100.217 121.189 100.217 119.059C100.217 116.939 101.757 115.499 103.727 115.499C104.967 115.499 105.757 116.019 106.197 116.459L105.817 117.049C105.507 116.649 104.707 116.169 103.747 116.169C102.127 116.169 100.987 117.329 100.987 119.039C100.987 120.749 102.157 121.909 103.747 121.909C104.677 121.909 105.397 121.569 105.877 121.049L106.257 121.579ZM107.276 115.599H108.016V118.569H108.046C108.256 118.069 108.836 117.719 109.506 117.719C110.846 117.719 111.166 118.539 111.166 119.659V122.499H110.426V119.709C110.426 118.839 110.146 118.359 109.276 118.359C108.436 118.359 108.016 119.049 108.016 119.859V122.499H107.276V115.599ZM116.578 121.829C116.138 122.349 115.468 122.599 114.548 122.599C113.168 122.599 112.238 121.649 112.238 120.139C112.238 118.809 113.148 117.719 114.548 117.719C115.838 117.719 116.728 118.649 116.728 119.939C116.728 120.109 116.698 120.329 116.698 120.329H112.998C113.008 121.299 113.678 121.979 114.678 121.979C115.598 121.979 116.258 121.389 116.258 121.389L116.578 121.829ZM115.978 119.769C115.978 119.109 115.548 118.349 114.518 118.339C113.578 118.329 113.068 119.039 113.008 119.769H115.978ZM121.703 121.859C121.703 121.859 121.203 122.609 119.803 122.609C118.543 122.609 117.473 121.709 117.473 120.159C117.473 118.679 118.603 117.719 119.843 117.719C120.883 117.719 121.333 118.059 121.653 118.349L121.323 118.929C121.013 118.639 120.603 118.389 119.873 118.389C118.963 118.389 118.233 119.069 118.233 120.149C118.233 121.219 118.953 121.939 119.943 121.939C120.913 121.939 121.383 121.319 121.383 121.319L121.703 121.859ZM122.569 115.599H123.309V119.829L125.359 117.809H126.279L124.389 119.589L126.549 122.499H125.659L123.879 120.069L123.309 120.609V122.499H122.569V115.599ZM131.188 121.829C130.748 122.349 130.078 122.599 129.158 122.599C127.778 122.599 126.848 121.649 126.848 120.139C126.848 118.809 127.758 117.719 129.158 117.719C130.448 117.719 131.338 118.649 131.338 119.939C131.338 120.109 131.308 120.329 131.308 120.329H127.608C127.618 121.299 128.288 121.979 129.288 121.979C130.208 121.979 130.868 121.389 130.868 121.389L131.188 121.829ZM130.588 119.769C130.588 119.109 130.158 118.349 129.128 118.339C128.188 118.329 127.678 119.039 127.618 119.769H130.588ZM136.092 122.499C136.092 122.239 136.082 121.959 136.082 121.689C135.742 122.249 135.112 122.599 134.322 122.599C132.892 122.599 132.082 121.569 132.082 120.159C132.082 118.769 132.982 117.719 134.362 117.719C135.082 117.719 135.712 118.049 136.052 118.609H136.072V115.599H136.812V122.499H136.092ZM134.472 121.959C135.512 121.959 136.092 121.149 136.092 120.139C136.092 119.119 135.512 118.349 134.472 118.349C133.442 118.349 132.842 119.109 132.842 120.129C132.842 121.139 133.442 121.959 134.472 121.959ZM140.363 115.599H141.113V122.499H140.363V115.599ZM142.617 117.809H143.357V118.659C143.567 118.019 144.237 117.719 144.847 117.719C146.187 117.719 146.507 118.539 146.507 119.659V122.499H145.767V119.709C145.767 118.839 145.487 118.359 144.617 118.359C143.777 118.359 143.357 119.049 143.357 119.859V122.499H142.617V117.809Z" fill="#1E1715"/>
<path d="M182.365 118.909H185.085V121.529C184.965 121.679 184.155 122.619 182.195 122.619C180.165 122.619 178.695 121.199 178.695 119.049C178.695 116.949 180.215 115.499 182.175 115.499C183.925 115.499 184.685 116.419 184.945 116.699L184.435 117.209C183.975 116.669 183.255 116.159 182.175 116.159C180.665 116.159 179.465 117.259 179.465 119.049C179.465 120.849 180.705 121.929 182.245 121.929C183.785 121.929 184.355 121.249 184.355 121.249V119.549H182.365V118.909ZM186.155 120.169C186.155 118.739 187.225 117.719 188.595 117.719C189.965 117.719 191.045 118.739 191.045 120.169C191.045 121.609 189.965 122.599 188.595 122.599C187.225 122.599 186.155 121.609 186.155 120.169ZM188.595 121.949C189.635 121.949 190.285 121.149 190.285 120.149C190.285 119.139 189.635 118.359 188.595 118.359C187.555 118.359 186.915 119.139 186.915 120.149C186.915 121.149 187.555 121.949 188.595 121.949ZM191.79 120.169C191.79 118.739 192.86 117.719 194.23 117.719C195.6 117.719 196.68 118.739 196.68 120.169C196.68 121.609 195.6 122.599 194.23 122.599C192.86 122.599 191.79 121.609 191.79 120.169ZM194.23 121.949C195.27 121.949 195.92 121.149 195.92 120.149C195.92 119.139 195.27 118.359 194.23 118.359C193.19 118.359 192.55 119.139 192.55 120.149C192.55 121.149 193.19 121.949 194.23 121.949ZM201.435 122.499C201.435 122.239 201.425 121.959 201.425 121.689C201.085 122.249 200.455 122.599 199.665 122.599C198.235 122.599 197.425 121.569 197.425 120.159C197.425 118.769 198.325 117.719 199.705 117.719C200.425 117.719 201.055 118.049 201.395 118.609H201.415V115.599H202.155V122.499H201.435ZM199.815 121.959C200.855 121.959 201.435 121.149 201.435 120.139C201.435 119.119 200.855 118.349 199.815 118.349C198.785 118.349 198.185 119.109 198.185 120.129C198.185 121.139 198.785 121.959 199.815 121.959Z" fill="#1E1715"/>
<path d="M16.6349 161.71H233" stroke="#E8E7E7"/>
<path d="M16.6349 133.499H233" stroke="#E8E7E7"/>
<path d="M18.9949 150.82C17.1949 150.82 16.4249 149.05 16.4249 147.27C16.4249 145.48 17.2049 143.71 18.9949 143.71C20.8049 143.71 21.5649 145.48 21.5649 147.27C21.5649 149.05 20.8049 150.82 18.9949 150.82ZM18.9949 150.15C20.1749 150.15 20.7849 148.94 20.7849 147.25C20.7849 145.56 20.1749 144.37 18.9949 144.37C17.8149 144.37 17.2049 145.56 17.2049 147.25C17.2049 148.94 17.8149 150.15 18.9949 150.15ZM23.7473 147.05C23.3173 146.87 22.6573 146.51 22.6573 145.47C22.6573 144.36 23.6273 143.71 24.7273 143.71C25.8373 143.71 26.7973 144.36 26.7973 145.47C26.7973 146.51 26.1473 146.87 25.7073 147.05V147.07C26.4773 147.32 27.0173 147.94 27.0173 148.82C27.0173 150.1 26.0573 150.82 24.7273 150.82C23.3973 150.82 22.4473 150.1 22.4473 148.82C22.4473 147.94 22.9773 147.32 23.7473 147.07V147.05ZM23.4073 145.55C23.4073 146.34 23.9873 146.76 24.7273 146.76C25.4773 146.76 26.0473 146.34 26.0473 145.55C26.0473 144.76 25.4773 144.33 24.7273 144.33C23.9873 144.33 23.4073 144.76 23.4073 145.55ZM23.1973 148.77C23.1973 149.66 23.8973 150.2 24.7273 150.2C25.5673 150.2 26.2673 149.66 26.2673 148.77C26.2673 147.89 25.6073 147.36 24.7273 147.36C23.8473 147.36 23.1973 147.89 23.1973 148.77ZM31.9797 142.83L32.5197 143.08L28.3497 151.62L27.8097 151.37L31.9797 142.83ZM35.5769 150.82C33.7769 150.82 33.0069 149.05 33.0069 147.27C33.0069 145.48 33.7869 143.71 35.5769 143.71C37.3869 143.71 38.1469 145.48 38.1469 147.27C38.1469 149.05 37.3869 150.82 35.5769 150.82ZM35.5769 150.15C36.7569 150.15 37.3669 148.94 37.3669 147.25C37.3669 145.56 36.7569 144.37 35.5769 144.37C34.3969 144.37 33.7869 145.56 33.7869 147.25C33.7869 148.94 34.3969 150.15 35.5769 150.15ZM38.649 144.47V143.81H43.269L43.479 144.24L40.059 150.71H39.209L42.549 144.47H38.649ZM48.1614 142.83L48.7014 143.08L44.5314 151.62L43.9914 151.37L48.1614 142.83ZM51.9586 147.78C52.7186 147.02 53.1486 146.54 53.1486 145.76C53.1486 144.93 52.6386 144.35 51.6786 144.35C50.8186 144.35 50.1686 145.01 49.9286 145.46L49.4686 145.01C49.6886 144.53 50.4386 143.71 51.7086 143.71C53.1086 143.71 53.8986 144.52 53.8986 145.74C53.8986 146.8 53.2386 147.42 52.6186 148.03L50.5786 150.06H54.1786V150.71H49.6486L49.5286 150.19L51.9586 147.78ZM57.491 150.82C55.691 150.82 54.921 149.05 54.921 147.27C54.921 145.48 55.701 143.71 57.491 143.71C59.301 143.71 60.061 145.48 60.061 147.27C60.061 149.05 59.301 150.82 57.491 150.82ZM57.491 150.15C58.671 150.15 59.281 148.94 59.281 147.25C59.281 145.56 58.671 144.37 57.491 144.37C56.311 144.37 55.701 145.56 55.701 147.25C55.701 148.94 56.311 150.15 57.491 150.15ZM63.4234 147.78C64.1834 147.02 64.6134 146.54 64.6134 145.76C64.6134 144.93 64.1034 144.35 63.1434 144.35C62.2834 144.35 61.6334 145.01 61.3934 145.46L60.9334 145.01C61.1534 144.53 61.9034 143.71 63.1734 143.71C64.5734 143.71 65.3634 144.52 65.3634 145.74C65.3634 146.8 64.7034 147.42 64.0834 148.03L62.0434 150.06H65.6434V150.71H61.1134L60.9934 150.19L63.4234 147.78ZM67.0458 149.2C67.3458 149.71 67.9258 150.19 68.7358 150.19C69.6058 150.19 70.4458 149.63 70.4458 148.53C70.4458 147.44 69.6458 146.92 68.7658 146.92C68.2958 146.92 67.7758 147.1 67.5258 147.29L67.1058 147.05L67.7458 143.81H71.0258L71.0158 144.47H68.2858L67.8358 146.56C68.0858 146.4 68.5658 146.32 68.9558 146.32C70.1958 146.32 71.2058 147.08 71.2058 148.51C71.2058 150.01 70.0058 150.83 68.7258 150.83C67.4558 150.83 66.7958 150.05 66.5758 149.63L67.0458 149.2Z" fill="#1E1715"/>
<path d="M106.257 149.79C105.797 150.3 104.977 150.83 103.697 150.83C101.647 150.83 100.217 149.4 100.217 147.27C100.217 145.15 101.757 143.71 103.727 143.71C104.967 143.71 105.757 144.23 106.197 144.67L105.817 145.26C105.507 144.86 104.707 144.38 103.747 144.38C102.127 144.38 100.987 145.54 100.987 147.25C100.987 148.96 102.157 150.12 103.747 150.12C104.677 150.12 105.397 149.78 105.877 149.26L106.257 149.79ZM107.276 143.81H108.016V146.78H108.046C108.256 146.28 108.836 145.93 109.506 145.93C110.846 145.93 111.166 146.75 111.166 147.87V150.71H110.426V147.92C110.426 147.05 110.146 146.57 109.276 146.57C108.436 146.57 108.016 147.26 108.016 148.07V150.71H107.276V143.81ZM116.578 150.04C116.138 150.56 115.468 150.81 114.548 150.81C113.168 150.81 112.238 149.86 112.238 148.35C112.238 147.02 113.148 145.93 114.548 145.93C115.838 145.93 116.728 146.86 116.728 148.15C116.728 148.32 116.698 148.54 116.698 148.54H112.998C113.008 149.51 113.678 150.19 114.678 150.19C115.598 150.19 116.258 149.6 116.258 149.6L116.578 150.04ZM115.978 147.98C115.978 147.32 115.548 146.56 114.518 146.55C113.578 146.54 113.068 147.25 113.008 147.98H115.978ZM121.703 150.07C121.703 150.07 121.203 150.82 119.803 150.82C118.543 150.82 117.473 149.92 117.473 148.37C117.473 146.89 118.603 145.93 119.843 145.93C120.883 145.93 121.333 146.27 121.653 146.56L121.323 147.14C121.013 146.85 120.603 146.6 119.873 146.6C118.963 146.6 118.233 147.28 118.233 148.36C118.233 149.43 118.953 150.15 119.943 150.15C120.913 150.15 121.383 149.53 121.383 149.53L121.703 150.07ZM122.569 143.81H123.309V148.04L125.359 146.02H126.279L124.389 147.8L126.549 150.71H125.659L123.879 148.28L123.309 148.82V150.71H122.569V143.81ZM131.188 150.04C130.748 150.56 130.078 150.81 129.158 150.81C127.778 150.81 126.848 149.86 126.848 148.35C126.848 147.02 127.758 145.93 129.158 145.93C130.448 145.93 131.338 146.86 131.338 148.15C131.338 148.32 131.308 148.54 131.308 148.54H127.608C127.618 149.51 128.288 150.19 129.288 150.19C130.208 150.19 130.868 149.6 130.868 149.6L131.188 150.04ZM130.588 147.98C130.588 147.32 130.158 146.56 129.128 146.55C128.188 146.54 127.678 147.25 127.618 147.98H130.588ZM136.092 150.71C136.092 150.45 136.082 150.17 136.082 149.9C135.742 150.46 135.112 150.81 134.322 150.81C132.892 150.81 132.082 149.78 132.082 148.37C132.082 146.98 132.982 145.93 134.362 145.93C135.082 145.93 135.712 146.26 136.052 146.82H136.072V143.81H136.812V150.71H136.092ZM134.472 150.17C135.512 150.17 136.092 149.36 136.092 148.35C136.092 147.33 135.512 146.56 134.472 146.56C133.442 146.56 132.842 147.32 132.842 148.34C132.842 149.35 133.442 150.17 134.472 150.17ZM143.493 150.83C141.593 150.83 139.963 149.48 139.963 147.27C139.963 145.07 141.593 143.71 143.493 143.71C145.383 143.71 147.023 145.07 147.023 147.27C147.023 149.48 145.403 150.83 143.493 150.83ZM143.493 150.15C144.993 150.15 146.253 149.06 146.253 147.26C146.253 145.45 144.993 144.38 143.493 144.38C142.003 144.38 140.733 145.44 140.733 147.26C140.733 149.06 142.013 150.15 143.493 150.15ZM151.4 149.96C151.19 150.46 150.59 150.79 149.92 150.79C149.35 150.79 148.96 150.65 148.7 150.39C148.35 150.05 148.25 149.5 148.25 148.85V146.01H149V148.8C149 149.67 149.28 150.15 150.15 150.15C150.99 150.15 151.4 149.43 151.4 148.61V146.01H152.13V150.71H151.41L151.4 149.96ZM155.606 150.66C155.386 150.76 155.116 150.81 154.796 150.81C154.376 150.81 154.066 150.64 153.906 150.37C153.706 150.04 153.676 149.53 153.676 148.91V146.65H152.976V146.03H153.676V144.58H154.426V146.03H155.576V146.65H154.416V149.06C154.416 149.44 154.416 149.77 154.566 149.99C154.646 150.11 154.826 150.17 155.046 150.17C155.336 150.17 155.566 150.06 155.566 150.06L155.606 150.66Z" fill="#1E1715"/>
<path d="M179.105 143.81H179.885L184.115 149.5V147.88V143.81H184.855V150.71H184.135L179.845 144.94C179.845 145.44 179.855 146.41 179.855 147.37V150.71H179.105V143.81ZM190.378 150.04C189.938 150.56 189.268 150.81 188.348 150.81C186.968 150.81 186.038 149.86 186.038 148.35C186.038 147.02 186.948 145.93 188.348 145.93C189.638 145.93 190.528 146.86 190.528 148.15C190.528 148.32 190.498 148.54 190.498 148.54H186.798C186.808 149.51 187.478 150.19 188.478 150.19C189.398 150.19 190.058 149.6 190.058 149.6L190.378 150.04ZM189.778 147.98C189.778 147.32 189.348 146.56 188.318 146.55C187.378 146.54 186.868 147.25 186.808 147.98H189.778ZM190.836 146.02H191.596L192.786 149.76L194.166 146.01H194.786L196.156 149.77L197.336 146.02H198.096L196.536 150.71H195.806L194.446 147L193.076 150.71H192.346L190.836 146.02Z" fill="#1E1715"/>
<path d="M16.6349 161.71H233" stroke="#E8E7E7"/>
<path d="M18.9949 179.031C17.1949 179.031 16.4249 177.261 16.4249 175.481C16.4249 173.691 17.2049 171.921 18.9949 171.921C20.8049 171.921 21.5649 173.691 21.5649 175.481C21.5649 177.261 20.8049 179.031 18.9949 179.031ZM18.9949 178.361C20.1749 178.361 20.7849 177.151 20.7849 175.461C20.7849 173.771 20.1749 172.581 18.9949 172.581C17.8149 172.581 17.2049 173.771 17.2049 175.461C17.2049 177.151 17.8149 178.361 18.9949 178.361ZM23.7473 175.261C23.3173 175.081 22.6573 174.721 22.6573 173.681C22.6573 172.571 23.6273 171.921 24.7273 171.921C25.8373 171.921 26.7973 172.571 26.7973 173.681C26.7973 174.721 26.1473 175.081 25.7073 175.261V175.281C26.4773 175.531 27.0173 176.151 27.0173 177.031C27.0173 178.311 26.0573 179.031 24.7273 179.031C23.3973 179.031 22.4473 178.311 22.4473 177.031C22.4473 176.151 22.9773 175.531 23.7473 175.281V175.261ZM23.4073 173.761C23.4073 174.551 23.9873 174.971 24.7273 174.971C25.4773 174.971 26.0473 174.551 26.0473 173.761C26.0473 172.971 25.4773 172.541 24.7273 172.541C23.9873 172.541 23.4073 172.971 23.4073 173.761ZM23.1973 176.981C23.1973 177.871 23.8973 178.411 24.7273 178.411C25.5673 178.411 26.2673 177.871 26.2673 176.981C26.2673 176.101 25.6073 175.571 24.7273 175.571C23.8473 175.571 23.1973 176.101 23.1973 176.981ZM31.9797 171.041L32.5197 171.291L28.3497 179.831L27.8097 179.581L31.9797 171.041ZM35.5769 179.031C33.7769 179.031 33.0069 177.261 33.0069 175.481C33.0069 173.691 33.7869 171.921 35.5769 171.921C37.3869 171.921 38.1469 173.691 38.1469 175.481C38.1469 177.261 37.3869 179.031 35.5769 179.031ZM35.5769 178.361C36.7569 178.361 37.3669 177.151 37.3669 175.461C37.3669 173.771 36.7569 172.581 35.5769 172.581C34.3969 172.581 33.7869 173.771 33.7869 175.461C33.7869 177.151 34.3969 178.361 35.5769 178.361ZM38.649 172.681V172.021H43.269L43.479 172.451L40.059 178.921H39.209L42.549 172.681H38.649ZM48.1614 171.041L48.7014 171.291L44.5314 179.831L43.9914 179.581L48.1614 171.041ZM51.9586 175.991C52.7186 175.231 53.1486 174.751 53.1486 173.971C53.1486 173.141 52.6386 172.561 51.6786 172.561C50.8186 172.561 50.1686 173.221 49.9286 173.671L49.4686 173.221C49.6886 172.741 50.4386 171.921 51.7086 171.921C53.1086 171.921 53.8986 172.731 53.8986 173.951C53.8986 175.011 53.2386 175.631 52.6186 176.241L50.5786 178.271H54.1786V178.921H49.6486L49.5286 178.401L51.9586 175.991ZM57.491 179.031C55.691 179.031 54.921 177.261 54.921 175.481C54.921 173.691 55.701 171.921 57.491 171.921C59.301 171.921 60.061 173.691 60.061 175.481C60.061 177.261 59.301 179.031 57.491 179.031ZM57.491 178.361C58.671 178.361 59.281 177.151 59.281 175.461C59.281 173.771 58.671 172.581 57.491 172.581C56.311 172.581 55.701 173.771 55.701 175.461C55.701 177.151 56.311 178.361 57.491 178.361ZM63.4234 175.991C64.1834 175.231 64.6134 174.751 64.6134 173.971C64.6134 173.141 64.1034 172.561 63.1434 172.561C62.2834 172.561 61.6334 173.221 61.3934 173.671L60.9334 173.221C61.1534 172.741 61.9034 171.921 63.1734 171.921C64.5734 171.921 65.3634 172.731 65.3634 173.951C65.3634 175.011 64.7034 175.631 64.0834 176.241L62.0434 178.271H65.6434V178.921H61.1134L60.9934 178.401L63.4234 175.991ZM67.0458 177.411C67.3458 177.921 67.9258 178.401 68.7358 178.401C69.6058 178.401 70.4458 177.841 70.4458 176.741C70.4458 175.651 69.6458 175.131 68.7658 175.131C68.2958 175.131 67.7758 175.311 67.5258 175.501L67.1058 175.261L67.7458 172.021H71.0258L71.0158 172.681H68.2858L67.8358 174.771C68.0858 174.611 68.5658 174.531 68.9558 174.531C70.1958 174.531 71.2058 175.291 71.2058 176.721C71.2058 178.221 70.0058 179.041 68.7258 179.041C67.4558 179.041 66.7958 178.261 66.5758 177.841L67.0458 177.411Z" fill="#1E1715"/>
<path d="M102.727 172.001H103.297L106.177 178.921H105.327L104.557 176.991H101.397L100.637 178.921H99.8574L102.727 172.001ZM104.297 176.331L102.987 173.021L101.667 176.331H104.297ZM110.496 178.921C110.496 178.661 110.486 178.381 110.486 178.111C110.146 178.671 109.516 179.021 108.726 179.021C107.296 179.021 106.486 177.991 106.486 176.581C106.486 175.191 107.386 174.141 108.766 174.141C109.486 174.141 110.116 174.471 110.456 175.031H110.476V172.021H111.216V178.921H110.496ZM108.876 178.381C109.916 178.381 110.496 177.571 110.496 176.561C110.496 175.541 109.916 174.771 108.876 174.771C107.846 174.771 107.246 175.531 107.246 176.551C107.246 177.561 107.846 178.381 108.876 178.381ZM116.356 178.921C116.356 178.661 116.346 178.381 116.346 178.111C116.006 178.671 115.376 179.021 114.586 179.021C113.156 179.021 112.346 177.991 112.346 176.581C112.346 175.191 113.246 174.141 114.626 174.141C115.346 174.141 115.976 174.471 116.316 175.031H116.336V172.021H117.076V178.921H116.356ZM114.736 178.381C115.776 178.381 116.356 177.571 116.356 176.561C116.356 175.541 115.776 174.771 114.736 174.771C113.706 174.771 113.106 175.531 113.106 176.551C113.106 177.561 113.706 178.381 114.736 178.381ZM122.545 178.251C122.105 178.771 121.435 179.021 120.515 179.021C119.135 179.021 118.205 178.071 118.205 176.561C118.205 175.231 119.115 174.141 120.515 174.141C121.805 174.141 122.695 175.071 122.695 176.361C122.695 176.531 122.665 176.751 122.665 176.751H118.965C118.975 177.721 119.645 178.401 120.645 178.401C121.565 178.401 122.225 177.811 122.225 177.811L122.545 178.251ZM121.945 176.191C121.945 175.531 121.515 174.771 120.485 174.761C119.545 174.751 119.035 175.461 118.975 176.191H121.945ZM127.449 178.921C127.449 178.661 127.439 178.381 127.439 178.111C127.099 178.671 126.469 179.021 125.679 179.021C124.249 179.021 123.439 177.991 123.439 176.581C123.439 175.191 124.339 174.141 125.719 174.141C126.439 174.141 127.069 174.471 127.409 175.031H127.429V172.021H128.169V178.921H127.449ZM125.829 178.381C126.869 178.381 127.449 177.571 127.449 176.561C127.449 175.541 126.869 174.771 125.829 174.771C124.799 174.771 124.199 175.531 124.199 176.551C124.199 177.561 124.799 178.381 125.829 178.381Z" fill="#1E1715"/>
<path d="M179.105 172.021H179.885L184.115 177.711V176.091V172.021H184.855V178.921H184.135L179.845 173.151C179.845 173.651 179.855 174.621 179.855 175.581V178.921H179.105V172.021ZM190.378 178.251C189.938 178.771 189.268 179.021 188.348 179.021C186.968 179.021 186.038 178.071 186.038 176.561C186.038 175.231 186.948 174.141 188.348 174.141C189.638 174.141 190.528 175.071 190.528 176.361C190.528 176.531 190.498 176.751 190.498 176.751H186.798C186.808 177.721 187.478 178.401 188.478 178.401C189.398 178.401 190.058 177.811 190.058 177.811L190.378 178.251ZM189.778 176.191C189.778 175.531 189.348 174.771 188.318 174.761C187.378 174.751 186.868 175.461 186.808 176.191H189.778ZM190.836 174.231H191.596L192.786 177.971L194.166 174.221H194.786L196.156 177.981L197.336 174.231H198.096L196.536 178.921H195.806L194.446 175.211L193.076 178.921H192.346L190.836 174.231Z" fill="#1E1715"/>
</svg>
