<svg width="35" height="32" viewBox="0 0 35 32" fill="none" xmlns="http://www.w3.org/2000/svg">
<path d="M18.8121 5.3314C18.8121 7.01959 15.0486 8.38813 10.406 8.38813C5.7635 8.38813 2 7.01959 2 5.3314M18.8121 5.3314C18.8121 3.64321 15.0486 2.27466 10.406 2.27466C5.7635 2.27466 2 3.64321 2 5.3314M18.8121 5.3314V7.62395M2 5.3314V23.6718C2 25.3601 5.7635 26.7286 10.406 26.7286M10.406 14.5016C10.1484 14.5016 9.89354 14.4973 9.64185 14.4891C5.35744 14.3488 2 13.0394 2 11.4449M10.406 20.6151C5.7635 20.6151 2 19.2466 2 17.5584M32.5674 15.2658C32.5674 16.954 28.8039 18.3225 24.1614 18.3225C19.5188 18.3225 15.7553 16.954 15.7553 15.2658M32.5674 15.2658C32.5674 13.5776 28.8039 12.2091 24.1614 12.2091C19.5188 12.2091 15.7553 13.5776 15.7553 15.2658M32.5674 15.2658V26.7286C32.5674 28.4168 28.8039 29.7853 24.1614 29.7853C19.5188 29.7853 15.7553 28.4168 15.7553 26.7286V15.2658M32.5674 20.9972C32.5674 22.6854 28.8039 24.0539 24.1614 24.0539C19.5188 24.0539 15.7553 22.6854 15.7553 20.9972" stroke="#1E1715" stroke-width="3" stroke-linecap="round" stroke-linejoin="round"/>
</svg>
