<svg width="128" height="160" viewBox="0 0 128 160" fill="none" xmlns="http://www.w3.org/2000/svg">
<path d="M0.00512695 10.1536C0.00512695 4.63072 4.48228 0.153564 10.0051 0.153564H128V149.316C128 154.839 123.523 159.316 118 159.316H10.0051C4.48228 159.316 0.00512695 154.839 0.00512695 149.316V10.1536Z" fill="#E8E7E7"/>
<rect opacity="0.8" x="13.4426" y="13.3804" width="31" height="13" rx="5" fill="white"/>
<rect opacity="0.8" x="48.4426" y="13.3804" width="31" height="13" rx="5" fill="white"/>
<rect opacity="0.8" x="83.4426" y="13.3804" width="31" height="13" rx="5" fill="white"/>
<rect opacity="0.5" x="13.4426" y="30.3804" width="31" height="13" rx="5" fill="white"/>
<rect opacity="0.3" x="48.4426" y="30.3804" width="31" height="13" rx="5" fill="white"/>
<rect opacity="0.3" x="83.4426" y="30.3804" width="31" height="13" rx="5" fill="white"/>
<rect opacity="0.5" x="13.4426" y="47.3804" width="31" height="13" rx="5" fill="white"/>
<rect opacity="0.3" x="48.4426" y="47.3804" width="31" height="13" rx="5" fill="white"/>
<rect opacity="0.3" x="83.4426" y="47.3804" width="31" height="13" rx="5" fill="white"/>
<rect opacity="0.5" x="13.4426" y="64.3804" width="31" height="13" rx="5" fill="white"/>
<rect opacity="0.3" x="48.4426" y="64.3804" width="31" height="13" rx="5" fill="white"/>
<rect opacity="0.3" x="83.4426" y="64.3804" width="31" height="13" rx="5" fill="white"/>
<rect opacity="0.5" x="13.4426" y="81.3804" width="31" height="13" rx="5" fill="white"/>
<rect opacity="0.3" x="48.4426" y="81.3804" width="31" height="13" rx="5" fill="white"/>
<rect opacity="0.3" x="83.4426" y="81.3804" width="31" height="13" rx="5" fill="white"/>
<rect opacity="0.5" x="13.4426" y="98.3804" width="31" height="13" rx="5" fill="white"/>
<rect opacity="0.3" x="48.4426" y="98.3804" width="31" height="13" rx="5" fill="white"/>
<rect opacity="0.3" x="83.4426" y="98.3804" width="31" height="13" rx="5" fill="white"/>
<rect opacity="0.5" x="13.4426" y="115.38" width="31" height="13" rx="5" fill="white"/>
<rect opacity="0.3" x="48.4426" y="115.38" width="31" height="13" rx="5" fill="white"/>
<rect opacity="0.3" x="83.4426" y="115.38" width="31" height="13" rx="5" fill="white"/>
<rect opacity="0.5" x="13.4426" y="132.38" width="31" height="13" rx="5" fill="white"/>
<rect opacity="0.3" x="48.4426" y="132.38" width="31" height="13" rx="5" fill="white"/>
<rect opacity="0.3" x="83.4426" y="132.38" width="31" height="13" rx="5" fill="white"/>
</svg>
