<svg width="32" height="29" viewBox="0 0 32 29" fill="none" xmlns="http://www.w3.org/2000/svg">
<path d="M27.4056 26.9636V16.8014M15.7916 26.9636V12.4462M4.17762 26.9636V21.1566M17.8338 5.22735L25.337 8.04109M14.0478 5.76947L5.92005 11.8652M28.9454 7.27699C29.7957 8.12741 29.7957 9.50619 28.9454 10.3566C28.095 11.207 26.7161 11.207 25.8657 10.3566C25.0154 9.50619 25.0154 8.12741 25.8657 7.27699C26.7161 6.42657 28.095 6.42657 28.9454 7.27699ZM5.71743 11.6322C6.56785 12.4826 6.56785 13.8615 5.71743 14.7119C4.86701 15.5622 3.48823 15.5622 2.63781 14.7119C1.7874 13.8615 1.7874 12.4826 2.63781 11.6322C3.48823 10.7818 4.86701 10.7818 5.71743 11.6322ZM17.3315 2.92175C18.1817 3.77217 18.1817 5.15095 17.3315 6.00137C16.481 6.85179 15.1022 6.85179 14.2517 6.00137C13.4014 5.15095 13.4014 3.77217 14.2517 2.92175C15.1022 2.07133 16.481 2.07133 17.3315 2.92175Z" stroke="#1E1715" stroke-width="3" stroke-linecap="round" stroke-linejoin="round"/>
</svg>
