<svg xmlns="http://www.w3.org/2000/svg" width="126.78" height="81.442" viewBox="0 0 126.78 81.442"><g transform="translate(0 0)"><g transform="translate(36.819 0)"><path d="M2.245,20.2l12.539-3.175a3.11,3.11,0,0,0,2.245-2.245L20.2,2.245A2.245,2.245,0,0,0,17.958,0L5.419,3.175A3.156,3.156,0,0,0,3.175,5.419L0,17.958A2.245,2.245,0,0,0,2.245,20.2Z" transform="translate(11.657 14.286) rotate(-45)" fill="#fff"/><path d="M2.245,20.2l12.539-3.175a3.11,3.11,0,0,0,2.245-2.245L20.2,2.245A2.245,2.245,0,0,0,17.958,0L5.419,3.175A3.156,3.156,0,0,0,3.175,5.419L0,17.958A2.245,2.245,0,0,0,2.245,20.2Z" transform="translate(23.314 31.124) rotate(-45)" fill="#fff"/><path d="M2.245,20.2l12.539-3.175a3.11,3.11,0,0,0,2.245-2.245L20.2,2.245A2.245,2.245,0,0,0,17.958,0L5.419,3.175A3.156,3.156,0,0,0,3.175,5.419L0,17.958A2.245,2.245,0,0,0,2.245,20.2Z" transform="translate(0 31.124) rotate(-45)" fill="#fff"/></g><path d="M-70.881-8.236h.056v.666a5.022,5.022,0,0,1-.916,3.193,4.258,4.258,0,0,1-3.415,1.194,10,10,0,0,1-4.776-1.583L-81.4-2.294a11.233,11.233,0,0,0,6.247,2,7.758,7.758,0,0,0,6.109-2.36c1.138-1.194,1.749-2.86,1.749-5.8V-19.12h-3.526l.028,1.86h-.056a4.835,4.835,0,0,0-4.276-2.11,6.514,6.514,0,0,0-6.608,6.8c0,4.276,2.888,6.442,6.275,6.442A5.188,5.188,0,0,0-70.881-8.236Zm.25-4.415A3.547,3.547,0,0,1-74.463-8.9a3.532,3.532,0,0,1-3.665-3.748,3.637,3.637,0,0,1,3.721-3.915A3.823,3.823,0,0,1-70.632-12.651Zm8.885,1.388h9.885s.056-1.111.056-1.8c0-3.582-2.5-6.3-6.636-6.3a6.891,6.891,0,0,0-6.969,7.191c0,4.331,3,6.8,7.053,6.8a8.5,8.5,0,0,0,6.053-2.166l-1.388-1.916A6.788,6.788,0,0,1-57.748-8.1,3.69,3.69,0,0,1-61.746-11.262Zm3.276-5.47c2.5,0,3.054,1.694,3.11,3.165H-61.8A3.187,3.187,0,0,1-58.47-16.732Zm16.549,9.5.056,1.555h3.415v-7.691c0-2.277-.5-3.5-1.472-4.443A6.372,6.372,0,0,0-44.67-19.37a10.53,10.53,0,0,0-5.248,1.416l1.083,2.277A6.883,6.883,0,0,1-45-16.788c1.86,0,3,.805,3,2.527v.361l-3.221.222C-48-13.484-50.751-12.4-50.751-9.6s2.11,4.22,4.72,4.22A4.765,4.765,0,0,0-41.922-7.236ZM-44.393-11.6l2.416-.139v2.471a3.613,3.613,0,0,1-2.888,1.472c-1.472,0-2.332-.777-2.332-1.916S-46.281-11.485-44.393-11.6Zm8.441-7.525V-5.681h3.526V-12.29a5.992,5.992,0,0,1,.5-2.61,2.563,2.563,0,0,1,2.36-1.305,6.121,6.121,0,0,1,1.472.167h.167l.25-3.082a3.416,3.416,0,0,0-1.416-.25,3.591,3.591,0,0,0-3.3,2.416h-.083l.056-2.166Zm9.607-5.72V-5.681h3.526V-24.84ZM-13.489-5.376c4.109,0,7.275-2.721,7.275-6.969S-9.38-19.37-13.489-19.37c-4.137,0-7.3,2.777-7.3,7.025S-17.626-5.376-13.489-5.376Zm3.61-7.053c0,2.3-1.333,4.109-3.61,4.109-2.332,0-3.61-1.8-3.61-4.109s1.277-4.082,3.61-4.082C-11.212-16.51-9.88-14.733-9.88-12.429ZM6.03-9.791l1,2.61c-.278.25-1.666,1.8-5.248,1.8A6.769,6.769,0,0,1-5.27-12.29a6.969,6.969,0,0,1,7.108-7.08c3.387,0,4.72,1.361,5.081,1.721l-.972,2.666A5.249,5.249,0,0,0,2.254-16.4a3.7,3.7,0,0,0-3.8,3.943,3.856,3.856,0,0,0,4,4.082A5.043,5.043,0,0,0,6.03-9.791Zm7.441-2.027,3.915,6.136H21.5l-5.636-8.358,4.97-5.081H16.915l-4.859,5.248V-24.84H8.529V-5.681h3.526v-4.637Zm11.551.555h9.885s.056-1.111.056-1.8c0-3.582-2.5-6.3-6.636-6.3a6.891,6.891,0,0,0-6.969,7.191c0,4.331,3,6.8,7.053,6.8a8.5,8.5,0,0,0,6.053-2.166L33.074-9.458A6.788,6.788,0,0,1,29.021-8.1,3.69,3.69,0,0,1,25.022-11.262Zm3.276-5.47c2.5,0,3.054,1.694,3.11,3.165H24.967A3.187,3.187,0,0,1,28.3-16.732Zm8.469-2.388V-5.681h3.526V-12.29a5.992,5.992,0,0,1,.5-2.61,2.563,2.563,0,0,1,2.36-1.305,6.121,6.121,0,0,1,1.472.167h.167l.25-3.082a3.416,3.416,0,0,0-1.416-.25,3.591,3.591,0,0,0-3.3,2.416h-.083l.056-2.166Z" transform="translate(81.738 81.737)" fill="#fff"/></g></svg>