<svg width="30" height="30" viewBox="0 0 30 30" fill="none" xmlns="http://www.w3.org/2000/svg">
<path d="M23.0518 22.1816H7.08148M23.0518 16.3742H7.08148M2 10.5668H28.1333M8.96888 1.85571H21.1644C23.6038 1.85571 24.8234 1.85571 25.7552 2.33044C26.5747 2.74802 27.241 3.41433 27.6585 4.23389C28.1333 5.16558 28.1333 6.38525 28.1333 8.82459V21.0201C28.1333 23.4595 28.1333 24.6791 27.6585 25.6109C27.241 26.4305 26.5747 27.0967 25.7552 27.5143C24.8234 27.989 23.6038 27.989 21.1644 27.989H8.96888C6.52954 27.989 5.30987 27.989 4.37817 27.5143C3.55862 27.0967 2.89231 26.4305 2.47473 25.6109C2 24.6791 2 23.4595 2 21.0201V8.82459C2 6.38525 2 5.16558 2.47473 4.23389C2.89231 3.41433 3.55862 2.74802 4.37817 2.33044C5.30987 1.85571 6.52954 1.85571 8.96888 1.85571Z" stroke="#1E1715" stroke-width="3" stroke-linecap="round" stroke-linejoin="round"/>
</svg>
