<svg width="30" height="31" viewBox="0 0 30 31" fill="none" xmlns="http://www.w3.org/2000/svg">
<path d="M18.0901 8.00977H11.9097C10.7017 8.01069 9.54347 8.49097 8.68928 9.34516C7.83509 10.1994 7.3548 11.3576 7.35388 12.5656V18.746C7.35462 19.9541 7.83482 21.1126 8.68904 21.9669C9.54325 22.8213 10.7016 23.3017 11.9097 23.3026H18.0901C19.2982 23.3015 20.4565 22.821 21.3106 21.9667C22.1648 21.1124 22.6451 19.9541 22.646 18.746V12.5656C22.6454 11.3575 22.1653 10.199 21.311 9.34476C20.4567 8.49049 19.2982 8.01032 18.0901 8.00977ZM21.1084 18.746C21.1082 19.5464 20.7901 20.314 20.2241 20.88C19.6582 21.446 18.8906 21.7641 18.0901 21.7643H11.9097C11.5134 21.7643 11.121 21.6862 10.7548 21.5345C10.3887 21.3828 10.056 21.1605 9.77577 20.8802C9.49556 20.5999 9.2733 20.2672 9.1217 19.901C8.97009 19.5348 8.89211 19.1423 8.8922 18.746V12.5656C8.89211 12.1693 8.9701 11.7769 9.12171 11.4108C9.27332 11.0446 9.49559 10.7119 9.77582 10.4317C10.056 10.1515 10.3887 9.92921 10.7549 9.77759C11.121 9.62598 11.5135 9.54799 11.9097 9.54808H18.0901C18.8904 9.54827 19.6578 9.86625 20.2237 10.4321C20.7895 10.998 21.1075 11.7654 21.1077 12.5656L21.1084 18.746Z" fill="#1E1715"/>
<path d="M15.0003 11.7024C12.819 11.7024 11.0464 13.4757 11.0464 15.6563C11.0464 17.8369 12.8197 19.6102 15.0003 19.6102C17.1809 19.6102 18.9542 17.8369 18.9542 15.6563C18.9542 13.4757 17.1816 11.7024 15.0003 11.7024ZM15.0003 18.0719C14.3596 18.072 13.7452 17.8176 13.2921 17.3646C12.839 16.9117 12.5844 16.2973 12.5844 15.6567C12.5843 15.016 12.8387 14.4016 13.2916 13.9485C13.7446 13.4954 14.3589 13.2409 14.9996 13.2408C15.6402 13.2407 16.2547 13.4951 16.7077 13.948C17.1608 14.401 17.4154 15.0153 17.4155 15.656C17.4156 16.2966 17.1612 16.9111 16.7082 17.3641C16.2553 17.8172 15.6409 18.0718 15.0003 18.0719ZM18.9625 10.7842C19.1498 10.7843 19.3329 10.84 19.4886 10.9441C19.6443 11.0483 19.7657 11.1963 19.8373 11.3694C19.9089 11.5425 19.9276 11.7329 19.891 11.9166C19.8544 12.1004 19.7642 12.2691 19.6318 12.4016C19.4993 12.5341 19.3305 12.6243 19.1468 12.6609C18.9631 12.6974 18.7726 12.6787 18.5995 12.6071C18.4265 12.5355 18.2785 12.4142 18.1743 12.2585C18.0702 12.1027 18.0145 11.9197 18.0143 11.7323C18.0143 11.2096 18.3689 10.7842 18.9625 10.7842Z" fill="#1E1715"/>
</svg>
