<svg width="30" height="31" viewBox="0 0 30 31" fill="none" xmlns="http://www.w3.org/2000/svg">
<path fill-rule="evenodd" clip-rule="evenodd" d="M13.3868 17.8981V13.0344C15.1135 13.8468 16.4507 14.6317 18.0323 15.4779C16.7279 16.2013 15.1135 17.013 13.3868 17.8981ZM23.0094 10.6154C22.7115 10.223 22.2039 9.91753 21.6635 9.81641C20.075 9.51475 10.1649 9.51389 8.57726 9.81641C8.14388 9.89765 7.75796 10.094 7.42645 10.3991C6.02959 11.6956 6.4673 18.6483 6.804 19.7745C6.94558 20.262 7.12861 20.6136 7.35912 20.8444C7.6561 21.1495 8.06272 21.3596 8.52977 21.4538C9.8377 21.7243 16.5759 21.8756 21.6358 21.4944C22.102 21.4131 22.5147 21.1963 22.8402 20.8782C24.1317 19.5869 24.0436 12.2438 23.0094 10.6154Z" fill="black"/>
</svg>
