<svg xmlns="http://www.w3.org/2000/svg" width="47" height="47" viewBox="0 0 47 47" fill="none">
  <rect x="1.23828" y="1.35156" width="44" height="44" rx="9" stroke="white" stroke-width="2"/>
  <path d="M27.0967 15.0555C27.9937 15.0555 28.4422 15.0555 28.8101 15.1541C29.8086 15.4217 30.5886 16.2016 30.8562 17.2001C30.9547 17.5681 30.9547 18.0166 30.9547 18.9136V27.7871C30.9547 29.4077 30.9547 30.2179 30.6394 30.8369C30.362 31.3814 29.9193 31.824 29.3749 32.1014C28.7558 32.4168 27.9456 32.4168 26.3251 32.4168H20.1521C18.5316 32.4168 17.7213 32.4168 17.1024 32.1014C16.5579 31.824 16.1153 31.3814 15.8378 30.8369C15.5225 30.2179 15.5225 29.4077 15.5225 27.7871V18.9136C15.5225 18.0166 15.5225 17.5681 15.6211 17.2001C15.8886 16.2016 16.6686 15.4217 17.6671 15.1541C18.0351 15.0555 18.4836 15.0555 19.3805 15.0555M20.3451 25.6652L22.2741 27.5942L26.6144 23.2539M20.9238 16.9845H25.5534C26.0937 16.9845 26.3637 16.9845 26.5701 16.8794C26.7516 16.7869 26.899 16.6394 26.9915 16.4579C27.0967 16.2516 27.0967 15.9815 27.0967 15.4413V14.6697C27.0967 14.1295 27.0967 13.8594 26.9915 13.6531C26.899 13.4716 26.7516 13.3241 26.5701 13.2316C26.3637 13.1265 26.0937 13.1265 25.5534 13.1265H20.9238C20.3836 13.1265 20.1135 13.1265 19.9072 13.2316C19.7257 13.3241 19.5781 13.4716 19.4857 13.6531C19.3805 13.8594 19.3805 14.1295 19.3805 14.6697V15.4413C19.3805 15.9815 19.3805 16.2516 19.4857 16.4579C19.5781 16.6394 19.7257 16.7869 19.9072 16.8794C20.1135 16.9845 20.3836 16.9845 20.9238 16.9845Z" stroke="white" stroke-width="2" stroke-linecap="round" stroke-linejoin="round"/>
</svg>