<svg xmlns="http://www.w3.org/2000/svg" width="47" height="47" viewBox="0 0 47 47" fill="none">
  <rect x="0.238281" y="0.0666504" width="46" height="46" rx="10" fill="#1E1715"/>
  <path d="M27.0967 14.7706C27.9937 14.7706 28.4422 14.7706 28.8101 14.8692C29.8086 15.1367 30.5886 15.9167 30.8562 16.9152C30.9547 17.2832 30.9547 17.7317 30.9547 18.6287V27.5022C30.9547 29.1228 30.9547 29.933 30.6394 30.552C30.362 31.0965 29.9193 31.5391 29.3749 31.8165C28.7558 32.1319 27.9456 32.1319 26.3251 32.1319H20.1521C18.5316 32.1319 17.7213 32.1319 17.1024 31.8165C16.5579 31.5391 16.1153 31.0965 15.8378 30.552C15.5225 29.933 15.5225 29.1228 15.5225 27.5022V18.6287C15.5225 17.7317 15.5225 17.2832 15.6211 16.9152C15.8886 15.9167 16.6686 15.1367 17.6671 14.8692C18.0351 14.7706 18.4836 14.7706 19.3805 14.7706M20.3451 25.3803L22.2741 27.3093L26.6144 22.969M20.9238 16.6996H25.5534C26.0937 16.6996 26.3637 16.6996 26.5701 16.5945C26.7516 16.502 26.899 16.3545 26.9915 16.173C27.0967 15.9667 27.0967 15.6966 27.0967 15.1564V14.3848C27.0967 13.8446 27.0967 13.5745 26.9915 13.3682C26.899 13.1867 26.7516 13.0392 26.5701 12.9467C26.3637 12.8416 26.0937 12.8416 25.5534 12.8416H20.9238C20.3836 12.8416 20.1135 12.8416 19.9072 12.9467C19.7257 13.0392 19.5781 13.1867 19.4857 13.3682C19.3805 13.5745 19.3805 13.8446 19.3805 14.3848V15.1564C19.3805 15.6966 19.3805 15.9667 19.4857 16.173C19.5781 16.3545 19.7257 16.502 19.9072 16.5945C20.1135 16.6996 20.3836 16.6996 20.9238 16.6996Z" stroke="white" stroke-width="2" stroke-linecap="round" stroke-linejoin="round"/>
</svg>