<svg width="60" height="61" viewBox="0 0 60 61" fill="none" xmlns="http://www.w3.org/2000/svg">
<rect y="0.612793" width="60" height="60" rx="10" fill="#1E1715"/>
<path d="M35.0324 19.792C36.2024 19.792 36.7874 19.792 37.2673 19.9206C38.5697 20.2696 39.5871 21.2869 39.936 22.5894C40.0646 23.0693 40.0646 23.6543 40.0646 24.8243V36.3985C40.0646 38.5123 40.0646 39.5691 39.6532 40.3765C39.2914 41.0867 38.7141 41.664 38.0039 42.0258C37.1965 42.4372 36.1397 42.4372 34.0259 42.4372H25.9743C23.8605 42.4372 22.8036 42.4372 21.9963 42.0258C21.2861 41.664 20.7088 41.0867 20.3469 40.3765C19.9355 39.5691 19.9355 38.5123 19.9355 36.3985V24.8243C19.9355 23.6543 19.9355 23.0693 20.0641 22.5894C20.4131 21.2869 21.4305 20.2696 22.7329 19.9206C23.2129 19.792 23.7979 19.792 24.9678 19.792M26.2259 33.6307L28.742 36.1469L34.4033 30.4856M26.9807 22.3081H33.0194C33.7241 22.3081 34.0763 22.3081 34.3454 22.171C34.5822 22.0504 34.7746 21.8579 34.8952 21.6212C35.0324 21.3521 35.0324 20.9998 35.0324 20.2952V19.2888C35.0324 18.5842 35.0324 18.2319 34.8952 17.9628C34.7746 17.7261 34.5822 17.5336 34.3454 17.413C34.0763 17.2759 33.7241 17.2759 33.0194 17.2759H26.9807C26.2761 17.2759 25.9238 17.2759 25.6547 17.413C25.418 17.5336 25.2256 17.7261 25.1049 17.9628C24.9678 18.2319 24.9678 18.5842 24.9678 19.2888V20.2952C24.9678 20.9998 24.9678 21.3521 25.1049 21.6212C25.2256 21.8579 25.418 22.0504 25.6547 22.171C25.9238 22.3081 26.2761 22.3081 26.9807 22.3081Z" stroke="white" stroke-width="2" stroke-linecap="round" stroke-linejoin="round"/>
</svg>
