<svg width="134" height="81" viewBox="0 0 134 81" fill="none" xmlns="http://www.w3.org/2000/svg">
<rect x="1.76953" y="1.97839" width="61.1931" height="61.1931" rx="21" stroke="#1E1715" stroke-width="2"/>
<path d="M23.3662 40.575C25.702 38.0976 28.8732 36.575 32.3662 36.575C35.8592 36.575 39.0304 38.0976 41.3662 40.575M36.8662 28.075C36.8662 30.5602 34.8515 32.575 32.3662 32.575C29.8809 32.575 27.8662 30.5602 27.8662 28.075C27.8662 25.5897 29.8809 23.575 32.3662 23.575C34.8515 23.575 36.8662 25.5897 36.8662 28.075Z" stroke="#1E1715" stroke-width="2" stroke-linecap="round" stroke-linejoin="round"/>
<rect x="71.0059" y="18.575" width="61.1931" height="61.1931" rx="21" stroke="#1E1715" stroke-width="2" stroke-dasharray="4 4"/>
<path d="M105.603 40.6393C107.084 41.3756 108.103 42.9046 108.103 44.6715C108.103 46.4384 107.084 47.9674 105.603 48.7037M107.603 53.9379C109.114 54.6218 110.475 55.7365 111.603 57.1715M91.6025 57.1715C93.549 54.6941 96.1917 53.1715 99.1025 53.1715C102.013 53.1715 104.656 54.6941 106.603 57.1715M103.603 44.6715C103.603 47.1568 101.588 49.1715 99.1025 49.1715C96.6173 49.1715 94.6025 47.1568 94.6025 44.6715C94.6025 42.1862 96.6173 40.1715 99.1025 40.1715C101.588 40.1715 103.603 42.1862 103.603 44.6715Z" stroke="#1E1715" stroke-width="2" stroke-linecap="round" stroke-linejoin="round"/>
</svg>
