<svg xmlns="http://www.w3.org/2000/svg" width="164.615" height="34.992" viewBox="0 0 164.615 34.992">
  <g id="logo" transform="translate(-243.941 -225.806)">
    <g id="logo-icon" transform="translate(243.941 225.806)">
      <path id="Path_1" data-name="Path 1" d="M1.73,15.568l9.662-2.446a2.4,2.4,0,0,0,1.73-1.73L15.568,1.73A1.73,1.73,0,0,0,13.839,0L4.176,2.446a2.432,2.432,0,0,0-1.73,1.73L0,13.839A1.73,1.73,0,0,0,1.73,15.568Z" transform="translate(8.983 11.009) rotate(-45)" fill="#1a1a1a"/>
      <path id="Path_2" data-name="Path 2" d="M1.73,15.568l9.662-2.446a2.4,2.4,0,0,0,1.73-1.73L15.568,1.73A1.73,1.73,0,0,0,13.839,0L4.176,2.446a2.432,2.432,0,0,0-1.73,1.73L0,13.839A1.73,1.73,0,0,0,1.73,15.568Z" transform="translate(17.966 23.984) rotate(-45)" fill="#1a1a1a"/>
      <path id="Path_3" data-name="Path 3" d="M1.73,15.568l9.662-2.446a2.4,2.4,0,0,0,1.73-1.73L15.568,1.73A1.73,1.73,0,0,0,13.839,0L4.176,2.446a2.432,2.432,0,0,0-1.73,1.73L0,13.839A1.73,1.73,0,0,0,1.73,15.568Z" transform="translate(0 23.984) rotate(-45)" fill="#1a1a1a"/>
    </g>
    <path id="logo-text" d="M-71.65-9.412h.052v.619a4.666,4.666,0,0,1-.851,2.967,3.957,3.957,0,0,1-3.173,1.109,9.288,9.288,0,0,1-4.438-1.471l-1.367,2.3a10.437,10.437,0,0,0,5.8,1.858,7.209,7.209,0,0,0,5.676-2.193c1.058-1.109,1.625-2.657,1.625-5.392v-9.907H-71.6l.026,1.729h-.052A4.493,4.493,0,0,0-75.6-19.757a6.053,6.053,0,0,0-6.14,6.321c0,3.973,2.683,5.986,5.831,5.986A4.821,4.821,0,0,0-71.65-9.412Zm.232-4.1a3.3,3.3,0,0,1-3.56,3.483,3.282,3.282,0,0,1-3.406-3.483,3.38,3.38,0,0,1,3.457-3.638A3.552,3.552,0,0,1-71.418-13.514Zm8.256,1.29h9.185s.052-1.032.052-1.677c0-3.328-2.322-5.857-6.166-5.857a6.4,6.4,0,0,0-6.476,6.682c0,4.025,2.786,6.321,6.553,6.321A7.9,7.9,0,0,0-54.39-8.767l-1.29-1.78a6.307,6.307,0,0,1-3.767,1.264A3.428,3.428,0,0,1-63.162-12.224Zm3.044-5.083c2.322,0,2.838,1.574,2.89,2.941h-5.986A2.961,2.961,0,0,1-60.118-17.306Zm15.377,8.824.052,1.445h3.173v-7.147c0-2.116-.464-3.251-1.367-4.128A5.921,5.921,0,0,0-47.3-19.757a9.785,9.785,0,0,0-4.876,1.316l1.006,2.116a6.4,6.4,0,0,1,3.56-1.032c1.729,0,2.786.748,2.786,2.348v.335l-2.993.206c-2.58.181-5.134,1.187-5.134,3.793s1.961,3.922,4.386,3.922A4.427,4.427,0,0,0-44.741-8.483Zm-2.3-4.051,2.245-.129v2.3A3.357,3.357,0,0,1-47.476-9c-1.367,0-2.167-.722-2.167-1.78S-48.792-12.43-47.037-12.533Zm7.843-6.992V-7.038h3.277v-6.14a5.568,5.568,0,0,1,.464-2.425,2.382,2.382,0,0,1,2.193-1.213,5.688,5.688,0,0,1,1.367.155h.155l.232-2.864a3.174,3.174,0,0,0-1.316-.232,3.337,3.337,0,0,0-3.07,2.245h-.077l.052-2.012Zm8.927-5.315v17.8h3.277v-17.8ZM-18.322-6.754c3.818,0,6.76-2.528,6.76-6.476s-2.941-6.527-6.76-6.527c-3.844,0-6.785,2.58-6.785,6.527S-22.166-6.754-18.322-6.754Zm3.354-6.553c0,2.141-1.238,3.818-3.354,3.818-2.167,0-3.354-1.677-3.354-3.818s1.187-3.793,3.354-3.793C-16.206-17.1-14.968-15.449-14.968-13.307ZM-.185-10.857.744-8.431C.486-8.2-.8-6.754-4.132-6.754a6.29,6.29,0,0,1-6.553-6.424,6.476,6.476,0,0,1,6.6-6.579c3.148,0,4.386,1.264,4.721,1.6l-.9,2.477A4.878,4.878,0,0,0-3.694-17a3.434,3.434,0,0,0-3.535,3.664A3.583,3.583,0,0,0-3.513-9.541,4.686,4.686,0,0,0-.185-10.857ZM6.73-12.74l3.638,5.7h3.818L8.948-14.8l4.618-4.721H9.929L5.414-14.649V-24.84H2.137v17.8H5.414v-4.309Zm10.733.516h9.185s.052-1.032.052-1.677c0-3.328-2.322-5.857-6.166-5.857a6.4,6.4,0,0,0-6.476,6.682c0,4.025,2.786,6.321,6.553,6.321a7.9,7.9,0,0,0,5.624-2.012l-1.29-1.78a6.307,6.307,0,0,1-3.767,1.264A3.428,3.428,0,0,1,17.462-12.224Zm3.044-5.083c2.322,0,2.838,1.574,2.89,2.941H17.411A2.961,2.961,0,0,1,20.507-17.306Zm7.869-2.219V-7.038h3.277v-6.14a5.568,5.568,0,0,1,.464-2.425,2.382,2.382,0,0,1,2.193-1.213,5.688,5.688,0,0,1,1.367.155h.155l.232-2.864a3.174,3.174,0,0,0-1.316-.232,3.337,3.337,0,0,0-3.07,2.245H31.6l.052-2.012Z" transform="translate(372.492 256.51)" fill="#1a1a1a"/>
  </g>
</svg>
