<svg width="61" height="61" viewBox="0 0 61 61" fill="none" xmlns="http://www.w3.org/2000/svg">
<rect x="0.722412" y="0.200195" width="60" height="60" rx="10" fill="#1E1715"/>
<path d="M28.354 33.5584L25.1678 36.7844C24.7234 37.2344 24.5012 37.4594 24.3102 37.4752C24.1445 37.489 23.9822 37.4224 23.874 37.2961C23.7493 37.1506 23.7493 36.8344 23.7493 36.2019V34.5857C23.7493 34.0184 23.2846 33.6078 22.7232 33.5255C21.3644 33.3265 20.2973 32.2594 20.0983 30.9006C20.0654 30.6766 20.0654 30.4092 20.0654 29.8745V25.0625C20.0654 23.3217 20.0654 22.4514 20.4042 21.7865C20.7022 21.2016 21.1777 20.7261 21.7626 20.4281C22.4274 20.0894 23.2978 20.0894 25.0386 20.0894H32.7056C34.4464 20.0894 35.3167 20.0894 35.9816 20.4281C36.5665 20.7261 37.042 21.2016 37.3399 21.7865C37.6787 22.4514 37.6787 23.3217 37.6787 25.0625V29.414M37.6787 40.8109L35.4238 39.2432C35.1069 39.0228 34.9484 38.9126 34.7759 38.8345C34.6227 38.7652 34.4618 38.7147 34.2966 38.6842C34.1103 38.6499 33.9173 38.6499 33.5312 38.6499H31.6695C30.509 38.6499 29.9287 38.6499 29.4854 38.4241C29.0956 38.2255 28.7785 37.9084 28.5799 37.5186C28.354 37.0752 28.354 36.495 28.354 35.3345V32.7295C28.354 31.569 28.354 30.9887 28.5799 30.5454C28.7785 30.1556 29.0956 29.8385 29.4854 29.6399C29.9287 29.414 30.509 29.414 31.6695 29.414H37.4715C38.632 29.414 39.2123 29.414 39.6556 29.6399C40.0454 29.8385 40.3625 30.1556 40.5611 30.5454C40.787 30.9887 40.787 31.569 40.787 32.7295V35.5417C40.787 36.5072 40.787 36.9899 40.6293 37.3708C40.419 37.8785 40.0155 38.2819 39.5078 38.4922C39.127 38.6499 38.6443 38.6499 37.6787 38.6499V40.8109Z" stroke="white" stroke-width="2" stroke-linecap="round" stroke-linejoin="round"/>
</svg>
