<svg width="127" height="127" viewBox="0 0 127 127" fill="none" xmlns="http://www.w3.org/2000/svg">
<path d="M63.7181 124.387C97.149 124.387 124.251 97.2857 124.251 63.8548C124.251 30.4236 97.149 3.32227 63.7181 3.32227C30.2869 3.32227 3.18555 30.4236 3.18555 63.8548C3.18555 97.2857 30.2869 124.387 63.7181 124.387Z" stroke="white" stroke-width="5" stroke-linecap="round" stroke-linejoin="round"/>
<path d="M48.585 45.4855C48.585 42.5964 48.585 41.1518 49.1887 40.3454C49.7149 39.6425 50.5202 39.2029 51.396 39.1403C52.4009 39.0685 53.6158 39.8497 56.0462 41.412L84.6212 59.7819C86.7302 61.1372 87.7846 61.8152 88.1484 62.6771C88.4668 63.4302 88.4668 64.28 88.1484 65.0331C87.7846 65.8951 86.7302 66.573 84.6212 67.9283L56.0462 86.2982C53.6158 87.8605 52.4009 88.642 51.396 88.5699C50.5202 88.5076 49.7149 88.0675 49.1887 87.3647C48.585 86.5584 48.585 85.1141 48.585 82.2249V45.4855Z" stroke="white" stroke-width="5" stroke-linecap="round" stroke-linejoin="round"/>
</svg>
