<svg width="33" height="26" viewBox="0 0 33 26" fill="none" xmlns="http://www.w3.org/2000/svg">
<path d="M21.931 20.9899L24.8014 23.8604L30.5422 18.1195M30.5422 9.5083H1.83813M30.5422 12.3787V6.92493C30.5422 5.31736 30.5422 4.51356 30.2294 3.89955C29.9542 3.35945 29.5151 2.92034 28.975 2.64514C28.361 2.33228 27.5572 2.33228 25.9496 2.33228H6.43079C4.82322 2.33228 4.01942 2.33228 3.40541 2.64514C2.86531 2.92032 2.42618 3.35944 2.151 3.89955C1.83813 4.51356 1.83813 5.31736 1.83813 6.92493V17.8325C1.83813 19.4401 1.83813 20.2439 2.151 20.8579C2.42618 21.398 2.8653 21.8371 3.40541 22.1123C4.01942 22.4251 4.82322 22.4251 6.43079 22.4251H16.1902" stroke="#1E1715" stroke-width="3" stroke-linecap="round" stroke-linejoin="round"/>
</svg>
