<svg width="61" height="61" viewBox="0 0 61 61" fill="none" xmlns="http://www.w3.org/2000/svg">
<rect x="0.0559082" y="0.200195" width="60" height="60" rx="10" fill="#1E1715"/>
<path d="M38.7364 30.7789V24.1816C38.7364 22.2369 38.7364 21.2646 38.358 20.5219C38.0251 19.8685 37.494 19.3373 36.8406 19.0044C36.0978 18.626 35.1255 18.626 33.1808 18.626H25.7734C23.8287 18.626 22.8564 18.626 22.1137 19.0044C21.4603 19.3373 20.9291 19.8685 20.5962 20.5219C20.2178 21.2646 20.2178 22.2369 20.2178 24.1816V36.2187C20.2178 38.1634 20.2178 39.1356 20.5962 39.8785C20.9291 40.5318 21.4603 41.063 22.1137 41.3958C22.8564 41.7743 23.8287 41.7743 25.7734 41.7743H29.4771M31.7919 29.0427H24.8474M27.1623 33.6724H24.8474M34.1068 24.4131H24.8474M32.3706 38.3021L34.6855 40.6169L39.8939 35.4085" stroke="white" stroke-width="2" stroke-linecap="round" stroke-linejoin="round"/>
</svg>
