<svg xmlns="http://www.w3.org/2000/svg" width="60" height="60" viewBox="0 0 60 60"><g transform="translate(-308 -2496.992)"><g transform="translate(308 2496.992)" fill="none" stroke="#1d1815" stroke-width="2"><rect width="60" height="60" rx="6" stroke="none"/><rect x="1" y="1" width="58" height="58" rx="5" fill="none"/></g><path d="M9.623,25.868V8.082a9.551,9.551,0,0,1,.13-2.257,3.811,3.811,0,0,1,2.695-2.7A9.552,9.552,0,0,1,14.7,3a9.552,9.552,0,0,1,2.257.13,3.812,3.812,0,0,1,2.7,2.7,9.553,9.553,0,0,1,.13,2.257V25.868m-13.721,0H23.344a6.312,6.312,0,0,0,2.678-.277,2.54,2.54,0,0,0,1.11-1.11,6.312,6.312,0,0,0,.277-2.678V12.147a6.312,6.312,0,0,0-.277-2.678,2.541,2.541,0,0,0-1.11-1.11,6.313,6.313,0,0,0-2.678-.277H6.065a6.312,6.312,0,0,0-2.678.277,2.541,2.541,0,0,0-1.11,1.11A6.312,6.312,0,0,0,2,12.147V21.8a6.313,6.313,0,0,0,.277,2.678,2.541,2.541,0,0,0,1.11,1.11A6.312,6.312,0,0,0,6.065,25.868Z" transform="translate(323.296 2512.558)" fill="none" stroke="#1d1815" stroke-linecap="round" stroke-linejoin="round" stroke-width="2"/></g></svg>