<svg width="61" height="61" viewBox="0 0 61 61" fill="none" xmlns="http://www.w3.org/2000/svg">
<rect x="0.722412" y="0.979736" width="60" height="60" rx="10" fill="#1E1715"/>
<path d="M30.4261 29.3406V37.1391M30.4261 37.1391L26.5268 33.2398M30.4261 37.1391L34.3253 33.2398M35.6251 20.2423C36.8338 20.2423 37.4382 20.2423 37.9341 20.3752C39.2796 20.7357 40.3307 21.7868 40.6912 23.1324C40.8241 23.6282 40.8241 24.2326 40.8241 25.4413V37.399C40.8241 39.5828 40.8241 40.6746 40.399 41.5088C40.0252 42.2425 39.4288 42.839 38.6951 43.2128C37.8609 43.6378 36.7691 43.6378 34.5853 43.6378H26.2669C24.0831 43.6378 22.9912 43.6378 22.1571 43.2128C21.4234 42.839 20.8269 42.2425 20.4531 41.5088C20.0281 40.6746 20.0281 39.5828 20.0281 37.399V25.4413C20.0281 24.2326 20.0281 23.6282 20.1609 23.1324C20.5215 21.7868 21.5725 20.7357 22.9181 20.3752C23.414 20.2423 24.0183 20.2423 25.2271 20.2423M27.3067 22.8418H33.5455C34.2735 22.8418 34.6374 22.8418 34.9154 22.7002C35.16 22.5755 35.3587 22.3767 35.4834 22.1321C35.6251 21.8541 35.6251 21.4901 35.6251 20.7622V19.7224C35.6251 18.9945 35.6251 18.6305 35.4834 18.3525C35.3587 18.1079 35.16 17.9091 34.9154 17.7845C34.6374 17.6428 34.2735 17.6428 33.5455 17.6428H27.3067C26.5787 17.6428 26.2148 17.6428 25.9367 17.7845C25.6922 17.9091 25.4934 18.1079 25.3687 18.3525C25.2271 18.6305 25.2271 18.9945 25.2271 19.7224V20.7622C25.2271 21.4901 25.2271 21.8541 25.3687 22.1321C25.4934 22.3767 25.6922 22.5755 25.9367 22.7002C26.2148 22.8418 26.5787 22.8418 27.3067 22.8418Z" stroke="white" stroke-width="2" stroke-linecap="round" stroke-linejoin="round"/>
</svg>
