<svg width="34" height="33" viewBox="0 0 34 33" fill="none" xmlns="http://www.w3.org/2000/svg">
<path d="M8.08783 8.38324L14.9366 15.232M8.08783 8.38324H3.52196L2 3.81737L3.52196 2.29541L8.08783 3.81737V8.38324ZM28.2675 3.4232L24.2684 7.42232C23.6657 8.02505 23.3642 8.3264 23.2514 8.6739C23.152 8.97959 23.152 9.30885 23.2514 9.61453C23.3642 9.96204 23.6657 10.2634 24.2684 10.8661L24.6294 11.2272C25.2321 11.8299 25.5336 12.1313 25.881 12.2442C26.1866 12.3435 26.516 12.3435 26.8216 12.2442C27.1691 12.1313 27.4706 11.8299 28.0733 11.2272L31.8141 7.48638C32.2169 8.46677 32.4392 9.54052 32.4392 10.6662C32.4392 15.2893 28.6915 19.0369 24.0684 19.0369C23.511 19.0369 22.9663 18.9825 22.4396 18.8785C21.6996 18.7327 21.3296 18.6596 21.1054 18.682C20.8669 18.7058 20.7495 18.7415 20.5382 18.8546C20.3394 18.961 20.1402 19.1602 19.7415 19.559L8.84881 30.4516C7.58797 31.7124 5.54377 31.7124 4.28294 30.4516C3.0221 29.1908 3.0221 27.1465 4.28294 25.8858L15.1756 14.9931C15.5743 14.5943 15.7736 14.395 15.8799 14.1963C15.993 13.9851 16.0288 13.8676 16.0525 13.6291C16.0749 13.4049 16.0019 13.0349 15.8561 12.295C15.7521 11.7682 15.6976 11.2235 15.6976 10.6662C15.6976 6.04312 19.4453 2.29541 24.0684 2.29541C25.5987 2.29541 27.0332 2.70606 28.2675 3.4232ZM17.2197 22.0807L25.5903 30.4515C26.8511 31.7123 28.8954 31.7123 30.1562 30.4515C31.417 29.1907 31.417 27.1464 30.1562 25.8856L23.2698 18.9994C22.7823 18.9532 22.307 18.8653 21.8475 18.7391C21.2554 18.5766 20.6058 18.6947 20.1717 19.1287L17.2197 22.0807Z" stroke="#1E1715" stroke-width="3" stroke-linecap="round" stroke-linejoin="round"/>
</svg>
