<svg xmlns="http://www.w3.org/2000/svg" width="165" height="112" viewBox="0 0 165 112" fill="none">
  <rect x="0.883789" y="29.9214" width="78.0219" height="22.1535" rx="11.0767" fill="#E8E7E7"/>
  <rect x="87.9783" y="29.9214" width="77.0219" height="22.1535" rx="11.0767" fill="#E8E7E7"/>
  <rect x="11.5581" y="37.9119" width="50.5649" height="6.17266" rx="3.08633" fill="white" fill-opacity="0.4"/>
  <rect x="97.9878" y="37.9119" width="40.5649" height="6.17266" rx="3.08633" fill="white" fill-opacity="0.4"/>
  <rect x="0.883789" y="89.7646" width="78.0219" height="22.1535" rx="11.0767" fill="#E8E7E7"/>
  <rect x="11.4478" y="97.7549" width="50.7856" height="6.17266" rx="3.08633" fill="white" fill-opacity="0.4"/>
  <rect x="87.9783" y="89.7646" width="43.0874" height="22.1535" rx="11.0767" fill="#E8E7E7"/>
  <rect x="97.9878" y="97.7549" width="15.8222" height="6.17266" rx="3.08633" fill="white" fill-opacity="0.4"/>
  <rect x="0.883789" width="164.116" height="22.1535" rx="11.0767" fill="#E8E7E7"/>
  <rect x="54.5291" y="7.99023" width="56.8257" height="6.17266" rx="3.08633" fill="white" fill-opacity="0.4"/>
  <rect x="0.883789" y="59.8428" width="78.0219" height="22.1535" rx="11.0767" fill="#E8E7E7"/>
  <rect x="11.5581" y="67.833" width="40.7856" height="6.17266" rx="3.08633" fill="white" fill-opacity="0.4"/>
  <rect x="87.9783" y="59.8428" width="77.0219" height="22.1535" rx="11.0767" fill="#E8E7E7"/>
  <rect x="97.9878" y="67.833" width="50.391" height="6.17266" rx="3.08633" fill="white" fill-opacity="0.4"/>
</svg>