<svg xmlns="http://www.w3.org/2000/svg" width="35" height="34" viewBox="0 0 35 34" fill="none">
  <path d="M9.68592 13.3561L2 17.1991L16.8218 24.6101C17.0235 24.7109 17.1244 24.7613 17.2301 24.7812C17.3237 24.7987 17.42 24.7987 17.5136 24.7812C17.6193 24.7613 17.7202 24.7109 17.9218 24.6101L32.7437 17.1991L25.0578 13.3561M9.68592 21.0421L2 24.8851L16.8218 32.296C17.0235 32.3968 17.1244 32.4473 17.2301 32.4671C17.3237 32.4846 17.42 32.4846 17.5136 32.4671C17.6193 32.4473 17.7202 32.3968 17.9218 32.296L32.7437 24.8851L25.0578 21.0421M2 9.51317L16.8218 2.10223C17.0235 2.00141 17.1244 1.95099 17.2301 1.93116C17.3237 1.91357 17.42 1.91357 17.5136 1.93116C17.6193 1.95099 17.7202 2.00141 17.9218 2.10223L32.7437 9.51317L17.9218 16.9241C17.7202 17.025 17.6193 17.0754 17.5136 17.0952C17.42 17.1128 17.3237 17.1128 17.2301 17.0952C17.1244 17.0754 17.0235 17.025 16.8218 16.9241L2 9.51317Z" stroke="#1E1715" stroke-width="3" stroke-linecap="round" stroke-linejoin="round"/>
</svg>